<mxfile host="app.diagrams.net" modified="2020-11-25T02:22:29.860Z" agent="5.0 (Windows NT 10.0; Win64; x64) AppleWebKit/537.36 (KHTML, like Gecko) Chrome/86.0.4240.198 Safari/537.36" etag="IyJoDCqvzf86KWOHNpN6" version="13.10.2" type="github">
  <diagram id="476QNoEeHkvbqiNiRieS" name="Page-1">
    <mxGraphModel dx="1760" dy="1270" grid="1" gridSize="10" guides="1" tooltips="1" connect="1" arrows="1" fold="1" page="1" pageScale="1" pageWidth="1600" pageHeight="900" math="0" shadow="0">
      <root>
        <mxCell id="0" />
        <mxCell id="1" parent="0" />
        <mxCell id="4B--IzYdBBH68_pt8sej-1" value="" style="shape=image;verticalLabelPosition=bottom;verticalAlign=top;imageAspect=0;aspect=fixed;image=data:image/png,iVBORw0KGgoAAAANSUhEUgAAAMgAAADICAYAAACtWK6eAAAONUlEQVR4Xu2ce4xcZRnG3/dsL1zDzmybKmjaunNKUYIgKKJiKBdNDcTQYKEBQjBoO2eoQqIQ/cf2L4EoYunMFEgkKQLeaIjx0oByEUwAQSHYws5MAeXWlu6ZxWLFdPe8ZpdiiNKwO/NMz3vOPv2rSc/3+97zPN8vMzs9syo5/TOn1joxsbFzVHWemcwT1Xmq8tbfRQ7L6W33+rbaIrLdRHaoyA4x26FB0AwS2fxapdTq9eZp8DWNTXuxZ//6rfM1mHmqip0qomeLyJG92IfM/SSg+rRYstm07w8SyEPtlYOv5yGrzAtS3ND8sI1JRVWiPBSSk3t4RSy5JZgx+6ZdKxe8muV7yqwg/fVnFgQ2MxKxcTEOzXIJOZ4986JkUpBidWiNSRCpytwcH6483dqEKHHl6DVZu6lMCTJw49DipC+oq8hpWQua804ksDk5eMaKkUsXjmQlj8wIUqg1VqloPSvBcs79JaBtVTlvuFy6LwsZZUKQYq11p4hdkIVAOeMkE1D9RlwufX+SV6d2mXtBCrXGOhVdnVpC3LhnCZjqina59JOebQAAuxakUG2sUNU7APdJhNMEAtPTd1VK9zsdT9wKMrB+6AwLgt95DY5z4RJQ7Tt5uPyhx3BEHMmlIIV661hNkl+K6kLcrZLkOIGGzJBl8VfDLd5mdClIsdYcf196vrewOE/vEjCRje0ovKR3O3RGdifIQK15kYnc1tntcFWmEzBdGldKmz3dgytB+m99vj/YM/qwqHzEU0gdzLLbRJ7oYF3HS1R0gYgt6BjgY+HmOAqX+hjlrSlcCTJQa1xjold7CmiKs2wR0XVxVLp5iusglw/UWqtNbB0ElhJETS8ZrpQ2prT9/23rRpAj1jUH+2ZIlr9TsEUCWR6vCremWW7/jc3Tgj5x+7HpJLJ5LI7Ckydx3QG5xI0ghdq2VSpJZh8lUZE7hqPwwgPS2ntsUqw1X87y92GSMVkysjp8wEOWbgQpVhubRPVcD6F0NIMla708rVqoNe/P9AOdqj+My6UrOuoBvMiPILXm7ix/FVZNbh+uhBeB++kIV6g2d2b8qwB/i6PQxQcOLgQp1FpLVew3HZ0GP4v+pYktGb580aNpjpSXZ9e8vM1yIchAtXGtqV6V5sEC7f2iml43Fuz91Uj5mBdAzElh+quN41XlLBW9blILnF9kIt9tR+G30x7ThSDFWusuEVuWdhjc31UCt8ZR+OW0J/IiyFMidlzaYXB/Vwn8No7CL6Q9kRNBmntE5OC0w+D+fhJQkb8MR+HH0p4odUEG6kNHmQUvpR0E93eXwPY4Ct+f9lSpC5KD//lNu8Pc7h9HYernM/UBKEhuz3fXN0ZBRISCdH2OcgugIBQkt4cbcWMUhIIgzlFuGRSEguT2cCNujIJQEMQ5yi2DglCQ3B5uxI1REAqCOEe5ZVAQCpLbw424MQpCQRDnKLcMCgIUxMsXbHJ7WqdwY6iv/FIQCjKFY5edSykIsCvUoyZ8BQGW0iWKgnQZ4DuXUxBgmE5QFARYBAUBhukERUGARVAQYJhOUBQEWAQFAYbpBEVBgEVQEGCYTlAUBFgEBQGG6QRFQYBFUBBgmE5QFARYBAUBhukERUGARVAQYJhOUBQEWAQFAYbpBEVBgEVQEGCYTlAUBFgEBQGG6QRFQYBFUBBgmE5QFARYBAUBhukERUGARVAQYJhOUBQEWAQFAYbpBEVBgEVQEGCYTlAUBFgEBQGG6QRFQYBFUBBgmE5QFARYBAUBhukERUGARVAQYJhOUBQEWAQFAYbpBEVBgEVQEGCYTlAUBFgEBQGG6QRFQYBFUBBgmE5QFARYBAUBhukERUGARVAQYJhOUBQEWAQFAYbpBEVBgEVQEGCYTlAUBFgEBQGG6QRFQYBFUBBgmE5QFARYBAUBhukERUGARVAQYJhOUBQEWAQFAYbpBEVBgEVQEGCYTlAUBFgEBQGG6QRFQYBFUBBgmE5QFARYBAUBhukERUGARVAQYJhOUBQEWAQFAYbpBEVBgEVQEGCYTlAUBFgEBQGG6QRFQYBFUBBgmE5QFARYBAUBhukERUGARVAQYJhOUBQEWAQFAYbpBEVBgEVQEGCYTlAUBFgEBQGG6QRFQYBFUBBgmE5QFARYBAUBhukERUGARVAQYJhOUBQEWAQFAYbpBEVBgEVQEGCYTlAUBFgEBQGG6QRFQYBFUBBgmE5QFARYBAUBhukERUGARVAQYJhOUBQEWAQFAYbpBEVBgEVQEGCYTlAUBFgEBQGG6QRFQYBFUBBgmE5QFARYBAUBhukERUGARVAQYJhOUBQEWAQFAYbpBEVBgEVQEGCYTlAUBFgEBQGG6QRFQYBFUBBgmE5QFARYBAUBhukERUGARVAQYJhOUBQEWAQFAYbpBEVBgEVQEGCYTlAUBFgEBQGG6QRFQYBFUBBgmE5QFARYBAUBhukERUGARVAQYJhOUBQEWAQFAYbpBEVBgEVQEGCYTlAUBFgEBQGG6QRFQYBFUBBgmE5QFARYBAUBhukERUGARVAQYJhOUBQEWAQFAYbpBEVBgEVQEGCYTlAUBFgEBQGG6QRFQYBFUBBgmE5QFARYBAUBhukERUGARVAQYJhOUBQEWAQFAYbpBEVBgEVQEGCYTlAUBFgEBQGG6QRFQYBFUBBgmE5QFARYBAUBhukERUGARVAQYJhOUBQEWAQFAYbpBEVBgEVQEGCYTlAUBFgEBQGG6QRFQYBFUBBgmE5QFARYBAUBhukERUGARVAQYJhOUBQEWAQFAYbpBEVBgEVQEGCYTlAUBFgEBQGG6QRFQYBFUBBgmE5QFARYBAUBhukERUGARVAQYJhOUBQEWAQFAYbpBEVBgEVQEGCYTlAUBFgEBQGG6QRFQYBFUBBgmE5QFARYBAUBhukERUGARVAQYJhOUBQEWAQFAYbpBEVBgEVQEGCYTlAUBFgEBQGG6QRFQYBFUBBgmE5QFARYBAUBhukERUGARVAQYJhOUBQEWAQFAYbpBEVBgEVQEGCYTlAUBFgEBQGG6QRFQYBFUBBgmE5QFARYBAUBhukERUGARaAEMZEHgGMR1WUCKnJalwiJo1C7ZXS7PvUBUIJ0GwTX+0uAgogIBfF3ML1MREEoiJez6HIOCkJBXB5ML0NREAri5Sy6nIOCUJB9B1NfEEu2igZbRJI5YrpYVBeLWMHlyT1AQ1GQ6S1IUzW5WoPZj+xaueDVdztzc9ZvW5T02Tlidq2I9B2gc+lmGwoyfQX5aRyFF0z2JPZXG8cHGtwsYh+f7Jo8XEdBpqEgyZgsGVkddvSfmsVa8woR+UEeDv9k7oGCTDNBxmTW4OvR/Ocmczj2d02x2rxSVK7vhpGVtRRERAq1Z49T6XsqK6V1OqeprmqXSzd1uv6d61DPOiFm6SHjjTgKD+8hf1Lo1B81+cD1Lx6856A390xq2uxedFccheehxu+vN08ITP6M4nnkmEirHYVh2rOlLsh4AMVa8yUROSrtMHq1v6l+pl0u/RHJL1aH1ogG30EyfbH0oTgqfTbtmVwIkve3DHuT0Tm7Lz9mGFl2od66QM3uRDKdsX4eR+HytGdyIUix1rxFRC5LO4we7f9cHIWDaHah3jpWzZ5Gc73wTOzGdrToa2nP40KQgVqzYiLr0w6jN/vr5jgqLe0Fu1hr/VPEDukFO22miZXb0aINac/hQpD++jMLApvxfNph9GZ/+14cLfpmL9jFeutPYnZSL9hpM0dnHTTwj8s+GKc9hwtB9v2g/qiIfCLtQOD7W7I2rhy9Bs4d/3Cj2twuKvN6wU6VqfKLuBx+KdUZ9m3uR5C8firTI0HmbtgWjiVJw8MhQs9gKhe1y+HtaG4nPDeC5PibhT35NKZQbV6oKj/upHTfa7Q9Omt2ycPbq/Gc3Agy8Tar2nhQVFP/7Bt9gKwvmN9eOfh3JLdYb90gZl9HMj2wVKQ+HIWRh1ncCTJQa5xpovd6CQc2B/ht1tzqlsPGdNbDIvJR2IwuQNoOZPSUXdHiIRfjeHsFGQ9loNa8xkSu9hIQaI5Xgr6ZJ+3vex9T3aNYb90sZl+Z6jr316usicvhWk9zunqLNR7MvI3bD937xu4HReRET0F1O4uJbGxH4SXdcorV1qdEDfrYSrczYdbr0JjsOeX16Lg2hoehuBNk4lVkQ/OLlsjdmFv0Q1GVa4bL4be6mahYa74mInO6YXhcaypRuxzWvc3mUpDxkPL6MJ6J3m2WrB2pLHpyKodh3xO894vIEVNZl4lrTdfFlZLLDxzcCvKWJI1NonpuJkqe2pAjIrI2jsIb3mvZkTc9fsibo4dfldsnd01+FlfC898rh7T+3bUgE2+36s2WmcAf9ksr8P/Z9x4TeSKQ5LGxf896YOTKhePiyEC1cYypftpMTghUTjGRE5zMCx1j/Pcpt6NwCRQKhrkXZOKVpNZ8WUSOBN+7R9yTZnKUqsz1OBx2Jv11HJXOxjLxtEwIkuefSfCV+ieqyMXDUZiJpwAyI8iEJPXm58XkR9Pk1cT/SZ/qhCrPismlcRQ+MtWlaV2fKUHGQ+pfv3V+EMy6XsSWpRUa9+0kAdvUZzMrr1UWbu9kdVprMifI20ENVLctM00qInJ6WuFx30klcJ9aUB2uDG6a1NXOLsqsIP8Vpd682EzGH277pLNsp/s4j6hKbbgc3pblIDIvyNvhF6qNFap6upidIaoLs1xKZmc3e15Uf29m97Uri3LxCyVyI8g7D9WcDdtOsiT5XCJylsrEN+7eN/476jJ78FwObsOiusNMdgYi92oQ3LNr1eDjLkftYqhcCvKueazZMqs4d/a8oE/nje5NDusis+m7dGbSnqFjO3cV/rpTli8fmw5B/AfEh0BBVOl9PwAAAABJRU5ErkJggg==" parent="1" vertex="1">
          <mxGeometry x="60" y="210" width="90" height="90" as="geometry" />
        </mxCell>
        <mxCell id="4B--IzYdBBH68_pt8sej-2" value="&lt;span style=&quot;font-size: 20px&quot;&gt;Get data from smart phones.&lt;br&gt;Acceleration,Gyroscope;&lt;br&gt;Bluetooth signal&lt;br&gt;&lt;/span&gt;" style="text;html=1;strokeColor=none;fillColor=none;align=center;verticalAlign=middle;whiteSpace=wrap;rounded=0;" parent="1" vertex="1">
          <mxGeometry x="70" y="300" width="230" height="120" as="geometry" />
        </mxCell>
        <mxCell id="4B--IzYdBBH68_pt8sej-3" value="" style="shape=image;verticalLabelPosition=bottom;verticalAlign=top;imageAspect=0;aspect=fixed;image=data:image/png,iVBORw0KGgoAAAANSUhEUgAAAMgAAADICAYAAACtWK6eAAAONUlEQVR4Xu2ce4xcZRnG3/dsL1zDzmybKmjaunNKUYIgKKJiKBdNDcTQYKEBQjBoO2eoQqIQ/cf2L4EoYunMFEgkKQLeaIjx0oByEUwAQSHYws5MAeXWlu6ZxWLFdPe8ZpdiiNKwO/NMz3vOPv2rSc/3+97zPN8vMzs9syo5/TOn1joxsbFzVHWemcwT1Xmq8tbfRQ7L6W33+rbaIrLdRHaoyA4x26FB0AwS2fxapdTq9eZp8DWNTXuxZ//6rfM1mHmqip0qomeLyJG92IfM/SSg+rRYstm07w8SyEPtlYOv5yGrzAtS3ND8sI1JRVWiPBSSk3t4RSy5JZgx+6ZdKxe8muV7yqwg/fVnFgQ2MxKxcTEOzXIJOZ4986JkUpBidWiNSRCpytwcH6483dqEKHHl6DVZu6lMCTJw49DipC+oq8hpWQua804ksDk5eMaKkUsXjmQlj8wIUqg1VqloPSvBcs79JaBtVTlvuFy6LwsZZUKQYq11p4hdkIVAOeMkE1D9RlwufX+SV6d2mXtBCrXGOhVdnVpC3LhnCZjqina59JOebQAAuxakUG2sUNU7APdJhNMEAtPTd1VK9zsdT9wKMrB+6AwLgt95DY5z4RJQ7Tt5uPyhx3BEHMmlIIV661hNkl+K6kLcrZLkOIGGzJBl8VfDLd5mdClIsdYcf196vrewOE/vEjCRje0ovKR3O3RGdifIQK15kYnc1tntcFWmEzBdGldKmz3dgytB+m99vj/YM/qwqHzEU0gdzLLbRJ7oYF3HS1R0gYgt6BjgY+HmOAqX+hjlrSlcCTJQa1xjold7CmiKs2wR0XVxVLp5iusglw/UWqtNbB0ElhJETS8ZrpQ2prT9/23rRpAj1jUH+2ZIlr9TsEUCWR6vCremWW7/jc3Tgj5x+7HpJLJ5LI7Ckydx3QG5xI0ghdq2VSpJZh8lUZE7hqPwwgPS2ntsUqw1X87y92GSMVkysjp8wEOWbgQpVhubRPVcD6F0NIMla708rVqoNe/P9AOdqj+My6UrOuoBvMiPILXm7ix/FVZNbh+uhBeB++kIV6g2d2b8qwB/i6PQxQcOLgQp1FpLVew3HZ0GP4v+pYktGb580aNpjpSXZ9e8vM1yIchAtXGtqV6V5sEC7f2iml43Fuz91Uj5mBdAzElh+quN41XlLBW9blILnF9kIt9tR+G30x7ThSDFWusuEVuWdhjc31UCt8ZR+OW0J/IiyFMidlzaYXB/Vwn8No7CL6Q9kRNBmntE5OC0w+D+fhJQkb8MR+HH0p4odUEG6kNHmQUvpR0E93eXwPY4Ct+f9lSpC5KD//lNu8Pc7h9HYernM/UBKEhuz3fXN0ZBRISCdH2OcgugIBQkt4cbcWMUhIIgzlFuGRSEguT2cCNujIJQEMQ5yi2DglCQ3B5uxI1REAqCOEe5ZVAQCpLbw424MQpCQRDnKLcMCgIUxMsXbHJ7WqdwY6iv/FIQCjKFY5edSykIsCvUoyZ8BQGW0iWKgnQZ4DuXUxBgmE5QFARYBAUBhukERUGARVAQYJhOUBQEWAQFAYbpBEVBgEVQEGCYTlAUBFgEBQGG6QRFQYBFUBBgmE5QFARYBAUBhukERUGARVAQYJhOUBQEWAQFAYbpBEVBgEVQEGCYTlAUBFgEBQGG6QRFQYBFUBBgmE5QFARYBAUBhukERUGARVAQYJhOUBQEWAQFAYbpBEVBgEVQEGCYTlAUBFgEBQGG6QRFQYBFUBBgmE5QFARYBAUBhukERUGARVAQYJhOUBQEWAQFAYbpBEVBgEVQEGCYTlAUBFgEBQGG6QRFQYBFUBBgmE5QFARYBAUBhukERUGARVAQYJhOUBQEWAQFAYbpBEVBgEVQEGCYTlAUBFgEBQGG6QRFQYBFUBBgmE5QFARYBAUBhukERUGARVAQYJhOUBQEWAQFAYbpBEVBgEVQEGCYTlAUBFgEBQGG6QRFQYBFUBBgmE5QFARYBAUBhukERUGARVAQYJhOUBQEWAQFAYbpBEVBgEVQEGCYTlAUBFgEBQGG6QRFQYBFUBBgmE5QFARYBAUBhukERUGARVAQYJhOUBQEWAQFAYbpBEVBgEVQEGCYTlAUBFgEBQGG6QRFQYBFUBBgmE5QFARYBAUBhukERUGARVAQYJhOUBQEWAQFAYbpBEVBgEVQEGCYTlAUBFgEBQGG6QRFQYBFUBBgmE5QFARYBAUBhukERUGARVAQYJhOUBQEWAQFAYbpBEVBgEVQEGCYTlAUBFgEBQGG6QRFQYBFUBBgmE5QFARYBAUBhukERUGARVAQYJhOUBQEWAQFAYbpBEVBgEVQEGCYTlAUBFgEBQGG6QRFQYBFUBBgmE5QFARYBAUBhukERUGARVAQYJhOUBQEWAQFAYbpBEVBgEVQEGCYTlAUBFgEBQGG6QRFQYBFUBBgmE5QFARYBAUBhukERUGARVAQYJhOUBQEWAQFAYbpBEVBgEVQEGCYTlAUBFgEBQGG6QRFQYBFUBBgmE5QFARYBAUBhukERUGARVAQYJhOUBQEWAQFAYbpBEVBgEVQEGCYTlAUBFgEBQGG6QRFQYBFUBBgmE5QFARYBAUBhukERUGARVAQYJhOUBQEWAQFAYbpBEVBgEVQEGCYTlAUBFgEBQGG6QRFQYBFUBBgmE5QFARYBAUBhukERUGARVAQYJhOUBQEWAQFAYbpBEVBgEVQEGCYTlAUBFgEBQGG6QRFQYBFUBBgmE5QFARYBAUBhukERUGARVAQYJhOUBQEWAQFAYbpBEVBgEVQEGCYTlAUBFgEBQGG6QRFQYBFUBBgmE5QFARYBAUBhukERUGARVAQYJhOUBQEWAQFAYbpBEVBgEVQEGCYTlAUBFgEBQGG6QRFQYBFUBBgmE5QFARYBAUBhukERUGARVAQYJhOUBQEWAQFAYbpBEVBgEVQEGCYTlAUBFgEBQGG6QRFQYBFUBBgmE5QFARYBAUBhukERUGARVAQYJhOUBQEWAQFAYbpBEVBgEVQEGCYTlAUBFgEBQGG6QRFQYBFUBBgmE5QFARYBAUBhukERUGARaAEMZEHgGMR1WUCKnJalwiJo1C7ZXS7PvUBUIJ0GwTX+0uAgogIBfF3ML1MREEoiJez6HIOCkJBXB5ML0NREAri5Sy6nIOCUJB9B1NfEEu2igZbRJI5YrpYVBeLWMHlyT1AQ1GQ6S1IUzW5WoPZj+xaueDVdztzc9ZvW5T02Tlidq2I9B2gc+lmGwoyfQX5aRyFF0z2JPZXG8cHGtwsYh+f7Jo8XEdBpqEgyZgsGVkddvSfmsVa8woR+UEeDv9k7oGCTDNBxmTW4OvR/Ocmczj2d02x2rxSVK7vhpGVtRRERAq1Z49T6XsqK6V1OqeprmqXSzd1uv6d61DPOiFm6SHjjTgKD+8hf1Lo1B81+cD1Lx6856A390xq2uxedFccheehxu+vN08ITP6M4nnkmEirHYVh2rOlLsh4AMVa8yUROSrtMHq1v6l+pl0u/RHJL1aH1ogG30EyfbH0oTgqfTbtmVwIkve3DHuT0Tm7Lz9mGFl2od66QM3uRDKdsX4eR+HytGdyIUix1rxFRC5LO4we7f9cHIWDaHah3jpWzZ5Gc73wTOzGdrToa2nP40KQgVqzYiLr0w6jN/vr5jgqLe0Fu1hr/VPEDukFO22miZXb0aINac/hQpD++jMLApvxfNph9GZ/+14cLfpmL9jFeutPYnZSL9hpM0dnHTTwj8s+GKc9hwtB9v2g/qiIfCLtQOD7W7I2rhy9Bs4d/3Cj2twuKvN6wU6VqfKLuBx+KdUZ9m3uR5C8firTI0HmbtgWjiVJw8MhQs9gKhe1y+HtaG4nPDeC5PibhT35NKZQbV6oKj/upHTfa7Q9Omt2ycPbq/Gc3Agy8Tar2nhQVFP/7Bt9gKwvmN9eOfh3JLdYb90gZl9HMj2wVKQ+HIWRh1ncCTJQa5xpovd6CQc2B/ht1tzqlsPGdNbDIvJR2IwuQNoOZPSUXdHiIRfjeHsFGQ9loNa8xkSu9hIQaI5Xgr6ZJ+3vex9T3aNYb90sZl+Z6jr316usicvhWk9zunqLNR7MvI3bD937xu4HReRET0F1O4uJbGxH4SXdcorV1qdEDfrYSrczYdbr0JjsOeX16Lg2hoehuBNk4lVkQ/OLlsjdmFv0Q1GVa4bL4be6mahYa74mInO6YXhcaypRuxzWvc3mUpDxkPL6MJ6J3m2WrB2pLHpyKodh3xO894vIEVNZl4lrTdfFlZLLDxzcCvKWJI1NonpuJkqe2pAjIrI2jsIb3mvZkTc9fsibo4dfldsnd01+FlfC898rh7T+3bUgE2+36s2WmcAf9ksr8P/Z9x4TeSKQ5LGxf896YOTKhePiyEC1cYypftpMTghUTjGRE5zMCx1j/Pcpt6NwCRQKhrkXZOKVpNZ8WUSOBN+7R9yTZnKUqsz1OBx2Jv11HJXOxjLxtEwIkuefSfCV+ieqyMXDUZiJpwAyI8iEJPXm58XkR9Pk1cT/SZ/qhCrPismlcRQ+MtWlaV2fKUHGQ+pfv3V+EMy6XsSWpRUa9+0kAdvUZzMrr1UWbu9kdVprMifI20ENVLctM00qInJ6WuFx30klcJ9aUB2uDG6a1NXOLsqsIP8Vpd682EzGH277pLNsp/s4j6hKbbgc3pblIDIvyNvhF6qNFap6upidIaoLs1xKZmc3e15Uf29m97Uri3LxCyVyI8g7D9WcDdtOsiT5XCJylsrEN+7eN/476jJ78FwObsOiusNMdgYi92oQ3LNr1eDjLkftYqhcCvKueazZMqs4d/a8oE/nje5NDusis+m7dGbSnqFjO3cV/rpTli8fmw5B/AfEh0BBVOl9PwAAAABJRU5ErkJggg==" parent="1" vertex="1">
          <mxGeometry x="140" y="210" width="90" height="90" as="geometry" />
        </mxCell>
        <mxCell id="4B--IzYdBBH68_pt8sej-4" value="" style="shape=image;verticalLabelPosition=bottom;verticalAlign=top;imageAspect=0;aspect=fixed;image=data:image/png,iVBORw0KGgoAAAANSUhEUgAAAMgAAADICAYAAACtWK6eAAAONUlEQVR4Xu2ce4xcZRnG3/dsL1zDzmybKmjaunNKUYIgKKJiKBdNDcTQYKEBQjBoO2eoQqIQ/cf2L4EoYunMFEgkKQLeaIjx0oByEUwAQSHYws5MAeXWlu6ZxWLFdPe8ZpdiiNKwO/NMz3vOPv2rSc/3+97zPN8vMzs9syo5/TOn1joxsbFzVHWemcwT1Xmq8tbfRQ7L6W33+rbaIrLdRHaoyA4x26FB0AwS2fxapdTq9eZp8DWNTXuxZ//6rfM1mHmqip0qomeLyJG92IfM/SSg+rRYstm07w8SyEPtlYOv5yGrzAtS3ND8sI1JRVWiPBSSk3t4RSy5JZgx+6ZdKxe8muV7yqwg/fVnFgQ2MxKxcTEOzXIJOZ4986JkUpBidWiNSRCpytwcH6483dqEKHHl6DVZu6lMCTJw49DipC+oq8hpWQua804ksDk5eMaKkUsXjmQlj8wIUqg1VqloPSvBcs79JaBtVTlvuFy6LwsZZUKQYq11p4hdkIVAOeMkE1D9RlwufX+SV6d2mXtBCrXGOhVdnVpC3LhnCZjqina59JOebQAAuxakUG2sUNU7APdJhNMEAtPTd1VK9zsdT9wKMrB+6AwLgt95DY5z4RJQ7Tt5uPyhx3BEHMmlIIV661hNkl+K6kLcrZLkOIGGzJBl8VfDLd5mdClIsdYcf196vrewOE/vEjCRje0ovKR3O3RGdifIQK15kYnc1tntcFWmEzBdGldKmz3dgytB+m99vj/YM/qwqHzEU0gdzLLbRJ7oYF3HS1R0gYgt6BjgY+HmOAqX+hjlrSlcCTJQa1xjold7CmiKs2wR0XVxVLp5iusglw/UWqtNbB0ElhJETS8ZrpQ2prT9/23rRpAj1jUH+2ZIlr9TsEUCWR6vCremWW7/jc3Tgj5x+7HpJLJ5LI7Ckydx3QG5xI0ghdq2VSpJZh8lUZE7hqPwwgPS2ntsUqw1X87y92GSMVkysjp8wEOWbgQpVhubRPVcD6F0NIMla708rVqoNe/P9AOdqj+My6UrOuoBvMiPILXm7ix/FVZNbh+uhBeB++kIV6g2d2b8qwB/i6PQxQcOLgQp1FpLVew3HZ0GP4v+pYktGb580aNpjpSXZ9e8vM1yIchAtXGtqV6V5sEC7f2iml43Fuz91Uj5mBdAzElh+quN41XlLBW9blILnF9kIt9tR+G30x7ThSDFWusuEVuWdhjc31UCt8ZR+OW0J/IiyFMidlzaYXB/Vwn8No7CL6Q9kRNBmntE5OC0w+D+fhJQkb8MR+HH0p4odUEG6kNHmQUvpR0E93eXwPY4Ct+f9lSpC5KD//lNu8Pc7h9HYernM/UBKEhuz3fXN0ZBRISCdH2OcgugIBQkt4cbcWMUhIIgzlFuGRSEguT2cCNujIJQEMQ5yi2DglCQ3B5uxI1REAqCOEe5ZVAQCpLbw424MQpCQRDnKLcMCgIUxMsXbHJ7WqdwY6iv/FIQCjKFY5edSykIsCvUoyZ8BQGW0iWKgnQZ4DuXUxBgmE5QFARYBAUBhukERUGARVAQYJhOUBQEWAQFAYbpBEVBgEVQEGCYTlAUBFgEBQGG6QRFQYBFUBBgmE5QFARYBAUBhukERUGARVAQYJhOUBQEWAQFAYbpBEVBgEVQEGCYTlAUBFgEBQGG6QRFQYBFUBBgmE5QFARYBAUBhukERUGARVAQYJhOUBQEWAQFAYbpBEVBgEVQEGCYTlAUBFgEBQGG6QRFQYBFUBBgmE5QFARYBAUBhukERUGARVAQYJhOUBQEWAQFAYbpBEVBgEVQEGCYTlAUBFgEBQGG6QRFQYBFUBBgmE5QFARYBAUBhukERUGARVAQYJhOUBQEWAQFAYbpBEVBgEVQEGCYTlAUBFgEBQGG6QRFQYBFUBBgmE5QFARYBAUBhukERUGARVAQYJhOUBQEWAQFAYbpBEVBgEVQEGCYTlAUBFgEBQGG6QRFQYBFUBBgmE5QFARYBAUBhukERUGARVAQYJhOUBQEWAQFAYbpBEVBgEVQEGCYTlAUBFgEBQGG6QRFQYBFUBBgmE5QFARYBAUBhukERUGARVAQYJhOUBQEWAQFAYbpBEVBgEVQEGCYTlAUBFgEBQGG6QRFQYBFUBBgmE5QFARYBAUBhukERUGARVAQYJhOUBQEWAQFAYbpBEVBgEVQEGCYTlAUBFgEBQGG6QRFQYBFUBBgmE5QFARYBAUBhukERUGARVAQYJhOUBQEWAQFAYbpBEVBgEVQEGCYTlAUBFgEBQGG6QRFQYBFUBBgmE5QFARYBAUBhukERUGARVAQYJhOUBQEWAQFAYbpBEVBgEVQEGCYTlAUBFgEBQGG6QRFQYBFUBBgmE5QFARYBAUBhukERUGARVAQYJhOUBQEWAQFAYbpBEVBgEVQEGCYTlAUBFgEBQGG6QRFQYBFUBBgmE5QFARYBAUBhukERUGARVAQYJhOUBQEWAQFAYbpBEVBgEVQEGCYTlAUBFgEBQGG6QRFQYBFUBBgmE5QFARYBAUBhukERUGARVAQYJhOUBQEWAQFAYbpBEVBgEVQEGCYTlAUBFgEBQGG6QRFQYBFUBBgmE5QFARYBAUBhukERUGARVAQYJhOUBQEWAQFAYbpBEVBgEVQEGCYTlAUBFgEBQGG6QRFQYBFUBBgmE5QFARYBAUBhukERUGARVAQYJhOUBQEWAQFAYbpBEVBgEVQEGCYTlAUBFgEBQGG6QRFQYBFUBBgmE5QFARYBAUBhukERUGARVAQYJhOUBQEWAQFAYbpBEVBgEVQEGCYTlAUBFgEBQGG6QRFQYBFUBBgmE5QFARYBAUBhukERUGARVAQYJhOUBQEWAQFAYbpBEVBgEVQEGCYTlAUBFgEBQGG6QRFQYBFUBBgmE5QFARYBAUBhukERUGARVAQYJhOUBQEWAQFAYbpBEVBgEVQEGCYTlAUBFgEBQGG6QRFQYBFUBBgmE5QFARYBAUBhukERUGARVAQYJhOUBQEWAQFAYbpBEVBgEVQEGCYTlAUBFgEBQGG6QRFQYBFUBBgmE5QFARYBAUBhukERUGARaAEMZEHgGMR1WUCKnJalwiJo1C7ZXS7PvUBUIJ0GwTX+0uAgogIBfF3ML1MREEoiJez6HIOCkJBXB5ML0NREAri5Sy6nIOCUJB9B1NfEEu2igZbRJI5YrpYVBeLWMHlyT1AQ1GQ6S1IUzW5WoPZj+xaueDVdztzc9ZvW5T02Tlidq2I9B2gc+lmGwoyfQX5aRyFF0z2JPZXG8cHGtwsYh+f7Jo8XEdBpqEgyZgsGVkddvSfmsVa8woR+UEeDv9k7oGCTDNBxmTW4OvR/Ocmczj2d02x2rxSVK7vhpGVtRRERAq1Z49T6XsqK6V1OqeprmqXSzd1uv6d61DPOiFm6SHjjTgKD+8hf1Lo1B81+cD1Lx6856A390xq2uxedFccheehxu+vN08ITP6M4nnkmEirHYVh2rOlLsh4AMVa8yUROSrtMHq1v6l+pl0u/RHJL1aH1ogG30EyfbH0oTgqfTbtmVwIkve3DHuT0Tm7Lz9mGFl2od66QM3uRDKdsX4eR+HytGdyIUix1rxFRC5LO4we7f9cHIWDaHah3jpWzZ5Gc73wTOzGdrToa2nP40KQgVqzYiLr0w6jN/vr5jgqLe0Fu1hr/VPEDukFO22miZXb0aINac/hQpD++jMLApvxfNph9GZ/+14cLfpmL9jFeutPYnZSL9hpM0dnHTTwj8s+GKc9hwtB9v2g/qiIfCLtQOD7W7I2rhy9Bs4d/3Cj2twuKvN6wU6VqfKLuBx+KdUZ9m3uR5C8firTI0HmbtgWjiVJw8MhQs9gKhe1y+HtaG4nPDeC5PibhT35NKZQbV6oKj/upHTfa7Q9Omt2ycPbq/Gc3Agy8Tar2nhQVFP/7Bt9gKwvmN9eOfh3JLdYb90gZl9HMj2wVKQ+HIWRh1ncCTJQa5xpovd6CQc2B/ht1tzqlsPGdNbDIvJR2IwuQNoOZPSUXdHiIRfjeHsFGQ9loNa8xkSu9hIQaI5Xgr6ZJ+3vex9T3aNYb90sZl+Z6jr316usicvhWk9zunqLNR7MvI3bD937xu4HReRET0F1O4uJbGxH4SXdcorV1qdEDfrYSrczYdbr0JjsOeX16Lg2hoehuBNk4lVkQ/OLlsjdmFv0Q1GVa4bL4be6mahYa74mInO6YXhcaypRuxzWvc3mUpDxkPL6MJ6J3m2WrB2pLHpyKodh3xO894vIEVNZl4lrTdfFlZLLDxzcCvKWJI1NonpuJkqe2pAjIrI2jsIb3mvZkTc9fsibo4dfldsnd01+FlfC898rh7T+3bUgE2+36s2WmcAf9ksr8P/Z9x4TeSKQ5LGxf896YOTKhePiyEC1cYypftpMTghUTjGRE5zMCx1j/Pcpt6NwCRQKhrkXZOKVpNZ8WUSOBN+7R9yTZnKUqsz1OBx2Jv11HJXOxjLxtEwIkuefSfCV+ieqyMXDUZiJpwAyI8iEJPXm58XkR9Pk1cT/SZ/qhCrPismlcRQ+MtWlaV2fKUHGQ+pfv3V+EMy6XsSWpRUa9+0kAdvUZzMrr1UWbu9kdVprMifI20ENVLctM00qInJ6WuFx30klcJ9aUB2uDG6a1NXOLsqsIP8Vpd682EzGH277pLNsp/s4j6hKbbgc3pblIDIvyNvhF6qNFap6upidIaoLs1xKZmc3e15Uf29m97Uri3LxCyVyI8g7D9WcDdtOsiT5XCJylsrEN+7eN/476jJ78FwObsOiusNMdgYi92oQ3LNr1eDjLkftYqhcCvKueazZMqs4d/a8oE/nje5NDusis+m7dGbSnqFjO3cV/rpTli8fmw5B/AfEh0BBVOl9PwAAAABJRU5ErkJggg==" parent="1" vertex="1">
          <mxGeometry x="220" y="210" width="90" height="90" as="geometry" />
        </mxCell>
        <mxCell id="4B--IzYdBBH68_pt8sej-5" value="" style="endArrow=classic;html=1;fontStyle=1;exitX=1;exitY=0.5;exitDx=0;exitDy=0;entryX=0;entryY=0.25;entryDx=0;entryDy=0;" parent="1" source="4B--IzYdBBH68_pt8sej-2" target="4B--IzYdBBH68_pt8sej-7" edge="1">
          <mxGeometry width="50" height="50" relative="1" as="geometry">
            <mxPoint x="310" y="350" as="sourcePoint" />
            <mxPoint x="430" y="440" as="targetPoint" />
          </mxGeometry>
        </mxCell>
        <mxCell id="4B--IzYdBBH68_pt8sej-6" value="" style="shape=image;verticalLabelPosition=bottom;verticalAlign=top;imageAspect=0;aspect=fixed;image=data:image/png,iVBORw0KGgoAAAANSUhEUgAAAMgAAADICAYAAACtWK6eAAAT5UlEQVR4Xu1dCfR9UxX+rCRlkQyhVoMylCGS0ISKSDInShJlKCJFRVIrQ5IolVQoSin/DE3GBlLIUMaUKUIphKRZ67PO+6/nrd/vvbv3Offcc+779lq/xVr/c87e99v3e/fec/YwDyRCQAjMisA8wkYICIHZERBBdHcIgTEIiCC6PYSACKJ7QAj4ENATxIebZk0JAiLIlDhal+lDQATx4aZZU4KACDIljtZl+hAQQXy4adaUICCCTImjdZk+BEQQH26aNSUIiCBT4mhdpg8BEcSHm2ZNCQIiyJQ4WpfpQ6BNgqwMYBkASwBY0meeZgmBWRG4EwD/LgdwV1s4pSbIUwDsCWAzAKu0ZbTWFQIjCPwEwE8BHALgXynRSUmQ3QI5lk9poNYSAgYELgFwKIAzDHPGDk1FkKMCOVLZpXWEQAwCxwLYNWaBwdwUBHkkhSFaQwgkRuAHAF4Xu2YsQfhIWyPWCM0XAi0h8BEAH41ZO4YgBwPYL0a55gqBDAhsBWCOV4+XICsBuBjAAl7FmicEMiFwIYC1vbq8BDkSwF5epZonBDIjsB2Ar3t0eglyDYAVPQo1Rwh0gADJQZKYxUOQFQBca9akCUKgOwTuBbCoR72HIFsCONWjTHOEQIcILAbgHqt+D0F2B3C0QRG32RgKIBECKRHYB8BGhgVfAOBqw/hHh3oIwr3lAw2KXimCGNDS0KYIZLkPRZCm7tC40hAQQUrziOwpCgERpCh3tGPM4gDeAGBpAAsP/T0M4L7w91cAXwNwYzsmVLuqCFKt6yYb/lYAWwDYZPLQuSPOBfDdsIPYWoKQwZ6uh4ogXXugBf07A+DfiyLWZhbdlwAwpHuaiSKCRNxEpU3dBsD7Iokxek0DovBGmUYRQXridSbuHNPitfC1y/Kq1qIpWZcWQbLC3Y6yrwLYvp2lH7MqnyZPz6CnJBUiSEnecNhyIoC3OOZ5p7C6x+reyRXOE0EqdNrAZKYCMCUgt3wQwMdzK+1InwjSEfCxalcF8ONwphG7lmf+mwGc7JlY2RwRpDKHDcw9BcDWHdr+WwCvAHB3hzbkUC2C5EA5sQ5+kPPDvGvh693eXRvRsn4RpGWAUy/PhBzmPz8/9cLO9dYDcL5zbg3TRJAavDRk4zsAfNFp8/EAfgHgOgBXhXrGzF/gn/cgkLtoDGnpq4gglXnWu627KYAzx1wr6xwfB2ARIx59PxsRQYw3RNfDGXX7ZKMRlnyc6wE8z7j+ywFcZJxTy3ARpBZPAVg3bO1aTGYl8v0NE1gU/DeG8RzKdGfvK5pRVfbhIkh2yP0KdwBwgmH62QA2NIwfDLXeFF8B8DaHnhqmWLFwpX5bHvFeJ7kMq8FDQzZancUnB58gVmEx5u8ZJrFYBvHvo1gxd92HIkiaW4dPDz5FmgpLYXJL2CrzAXgIwLwNJ94ashUbDq9qmAhSkbsYWsLvkKbi+WEarJ1TV9Pr6WKcCNIF6k6d3Ibd0TA31xPkZgDPNdhV01ARpCJv8ZviIIO9ub5BzgOwvsGumoaKIBV5a1tjBG2uXSye7O9SEY4WU0UQC1odj2VIyK+NNuQ4B3kPAPaP7KOIIJV59Q+OtFfLxzorlLPNtkVeCOBXlgkVjRVBKnIWTf0ygJ0cNjeJxfoGgPmNa/d5i5dQiCDGG6Lr4SQHSeKR2aJ5VzEWCh/W3edTdBHEc5d1PEf5IHkdoCdIXryTaCslo5AXcziAfZNcVZmLiCBl+mWiVV3npA8b+AUAu020uM4BIkidfgO/G1hompXbSxB3A8sSjB9jgwhSuIPGmcfSO2xZUIqcEYrYPViKQQnsEEESgNjlEu8F8MkuDRjR/aPQCrkvFeFFkIJuLq8pbHXANgWlyC8DSVg7q3YRQWr3YLCfHaS+VdC1MG13OwCs5VuziCA1e2/EdpLk/Yn7g8TAw7AYFtauuT23CBJxB7Df31oAnjP0x7gnhl/8Pvz3UgAsjZNTUnWYYk+QVwFYNsL4+8OTxJLCG6Eu+VQRxAgpiyCsEzL7SI4mQpKcA+BnABiCnksYHs+ibhsYFF4WCtPxhuaH9nIhxD6mndv/AkkY6zVOmOLLQMnBH39sWOZo8PcPw3WkGiqCNESS2Xm7h26xDafMOOzbAD4L4IKYRQxzX2MkJXfFPjWyPpvmsJI7MYgR5oyMVoVcBgCL1jGYkvW1xsmVoarLDzN24xVBGniczSzf3mCcZQgDDtnfg8UR2pQUBKF9/FXnYeBrI41lD8UjANAu/uC83rkeX//4Q8Mnc5sigkxAlztD/PhtQ1gfl7+et7SxeFgzFUG43BPCweRWkfYy6YuRACnkpEAUvsa2ISLIGFRvCO/gbQA/vCa/ZS5pSUlKggxMZIh7aQWr26ruKILMcmM+7EgeirnHlw67XjFrzDS3DYJQz+cLDFBso4CdCDLDXcX2ALn7b9wBYKWwY5OSJG0RhDYy1J3fFKWJJcV4ku0iyAhC3wew0STUWvr30wFsnnjtNglCU/lq8+HENscul7LKiggy5A3uqhwd653I+XuEj87IZeZOb5sgVMSEqcNSGZxonXcCOCbBWiJIAJE9N/ihzPL/XQo3BtYEwBPoFJKDILSzhB+XUbyIY+zulggSUP0QgI+luCMTrHGAsYLiOJW5CEIbWBaV5VFLEW4BMz05RkSQgN41AFZ0IMkwiNPCLxUz/P4T2iOzRfI2ABZyrHkTAJ4wp5CcBKG9bwwHio9LYXyCNRhmE3OYKIIAWAHAtQ5n8KOabZBnO+jjugzbsMRCDczgCXOKAL/cBKH9fFVdw4Enp3A373ehyxV/bPjKy5Zwz3CuxxP3TZxzOU0ECWEkDCexiKUelLUhDe1gKAo72sZKboKwLBGDHB/vMJxdqojrTMLNi8841uQUvhlw694jIgiAOQC2MKB3oyMEnHFMbzLo+Euiggy5CcKgQz5ZrdLkoJTpBexbsqpxcd7k3I72iAgCwBpSwnMSRpRahOHiDCW3CL9fYgsg5CYISwBZK72vbsw8tEY58PWZh7AeEUEA/NvQbiwGbKahWraRnwXgNo9Xh+bkJghD0i2/8MyA/ITxGrcEcKpxzhMBePJJpp4gzwzZf03xZj7H1k0Hj4xjWRzLByNvNGu7g1HTchPkPgB8FWoitwMg/h6xVrlfCsAfHYqmniDW3uMxUaNZwB65CXIShMQgQZoKt8Vpn0esPRQZW2ft/067svjMEzyWxTAAzzbmY3wTAFNZPWLdDEjRdyMnQfjE4ytWU2HCE3enPMIwkl0NE18C4GLD+MHQLPdhyQQhEI8YgOMNsJph/PBQvi6xS1RTabKzM2mtnARhEpSlkU5OgnhzbkSQ8AThk6SJ/D1kw3Gr1yJ8B+YJOT8WmwrTXHlSHyM5CbIggAcMxuZ8xeLmiKeQnQgS9tYt/ce5xWsNibcCzfvM8+QdvT9zEoS67zac3+T8SH8qgD8byKtXrCGw2IRytJLHJCwtjSsZKnH9pAVH/j1mt2x4qdwE4Xs+o2ibSq5tXp7sM3TFKtYftld6CuV5fgmzGBbQ4sfwFVbkQsopD8bGCd+z3+VYm1vJJEms5CYI80KsDXXaPihkPTIGj3oky31YOkEInDfN9iwA3wlF4QZPCUbi0iGMLfI4hsGPrNaYQnIThIGZxMQqTTYkvKEm+0RUwBdBgidT5IOw3Oh/E9zcteaDEEqGx/BAzrIZMSBTW8GKLJ1q3VQZ2CSCBCRKySikOWxlYNnjH/drnfsJQlvOjCgIp3D3hs/eLMwdsaWktFEWj2DC1d8a4jXbsC4IYtUZeYljpythKsDj2j2YAVoWl/aGP6R2NL9pWPL05xELW2/WmWrzetSfGFofeOammqOU2yEkUxGE++UsCbpEKi9FrvPPEI5hTegaqO2KIMwobKtaZFNIVbShBYJwSeYOXN3UC5nGcfv0Aw5dXRGEpnJ7m9vcXci4D36LPVle9WvY5h0FrYRfwFGbPIeHXRKE9ltvMMvNO9vY/QAcmmIhh/2uN5kaCUJ8lwzVzF+dCOwUy7DnH8Nimn68d02Q3CQ5H8B6KYAOa1gJPlUEIUbzh2qLqfuDxPiQORcbN/x4L4EgvNYcTUZTfJSP+kUEaXinpuowxUp/3pI4o6buBmBSqEspBGmbJDGn5eNuARGkIUEGw9hhiWmzrFvF1mRNhBVK2J+PUcD848muJ/R6Jl0kCIkykzCLjnFROzQxMozhNveBLe5A8ceB503sfptC1ECnIYqud7+Ga882jO+6/Jupyy073fKPqaE8WR4VVh68EAAz3WKF6wz3D2QFlUGnW+/aLLjGKukpitfNZAOfbCTK+o4+LCyywXgvtWAzeLcLghjMm3UoK3rw9SBWGKLB2l47BXLErjeY3zZRGIDITQd2DuaPBX9sFh8xnklj/LHhuQqfwIzOvSfVBU5YR69YmYAep8ZTxia32QcDYEBnDmFmIoky6Dkfm1UZY7MIEoNewrnMSeEv45MSrpl6KZYtYtPRaRIRpCBvM6KYXXVLiQWbCZqU3ZsKgn5WU0SQAr1UYluzYZj4SsgksWkQEaRQL7PN8myVzksw+cWOWsMl2G21QQSxIpZxPNN1GX9VSmTx8KWfF7ZoM8LRiSoRpBPYmyvlYST3+0v8OLZUdml+xWWNFEHK8ses1hwRulmVZO6fQlEKdoTqq4ggFXk2Nr+CZVNZ/pSHbg+FdgBsscByqN6ds08D2KsiDK2miiBWxDoeb22hMDCXO2M8tWfp1JnEU8+K68T0S+kYykbqRZBGMJUziPV9rTWz2PqNwZKTxFrpfrBeTA/ASTZ1/e8iSNceMOj3pAKzvfXKBh1MDuMOlUX2jGiwadHTxVgRpAvUnTpZBqjJk2Cw/M0hv549/SzCAhGWBLFxIfcWvSWOFUFK9MosNrFogyXX+nBHnVyqthKRoefMk+mjiCAVedXaVYlJXZ58Dh5MWvr5sbUZk7P6KCJIRV5lLsSGBnuZa3G/YfzwUEs3LHaP9dTidZqWdZoIkhXuOGUnG/sjsiUai+B5hAlJizSceKch/bjhksUME0GKccVkQw4CsP/kYXNHMKX1c4bxg6EvBXCRYV5M/w2Dmk6GiiCdwO5TuiOA4wxTTwkf3IYpjw7dGwBDW5oK6/Ay+riPIoJU5FVrT3deGkl1guEaFwDAs5OmTU25dEzveINpnQwVQTqB3a+UoSKWD2J+pPNjvamQTJYyQVy31oIZTTARQZqgVNCYOaF6icUkxkvxnIJdZccJSxRZuv1yLRZUYLvqvooIUplnPR15B5e4BwDWrh3uuMszj5eFUJGmhfCGITsdwOaVYWgxVwSxoFXAWFY/YaE4fit45YFQ2XEx47fGTPqs3zhem7uaJ4J0hXyE3hQNRyPUz53K172tUixU8BoiSMHOmc20ecNTZK0ObefpOXPmL+vQhhyqRZAcKLegY1MAfP/vSvq8tTuMqQjS1R2WQK/1ZD2BykeXOAoANwumQUSQyr3MpwifJrmkz5G7M2EoguS6s1rUcyoAVjtsW/p+5iGCtH0Hdbi+9ZfOaioroqxmndSD8VZcXVEFtTbxrM2/Vmc2vT7W4c3xhGpqT85xVkxFkJzecehK0V1qoLbt5jmOy8s+RQTJDnkehSQK+wCyRRzL8jQVxmudC+A0Z7puUz21jBNBavFUhJ0rBKIwb5xh7IO/ewGw8gn/bgmE6PvBnxVGEcSKmMZPFQIiyFS5WxdrRUAEsSKm8VOFgAgyVe7WxVoREEGsiGn8VCFQLEF2BnCswRUsqnapYbyGCoEmCKxjTENePiSjNVl77hjPSfrGAHhQJRECNSGwEIAHrQZ7CLIUAFbskwiBWhC4EcCyHmM9BKEeT5UNj32aIwRSIHA0gHd7FvISxPqB5LFNc4RAKgQ2AsBvYbN4CTIfgAsArGnWqAlCIC8C3FDa1avSSxDq6zr32nvNmjc9CNwQugTf5r3kGIJQJ1t87eJVrnlCoGUE1g5VZtxqYglCxd72x26jNVEINEAgSXWXFAShrWwsyQaTEiHQNQJ8nWIBv5NSGJKKILSFH+xsO7xtCsO0hhBwIMAP8kMAuL85RnWmJMhgbW6pbRYKJ7PGrEQItIkAK+TzNZ+7qmenVtQGQYZtZPn9JQGwUrlECKREgNEcd3nCRyxGtE0Qiy0aKwSKQ0AEKc4lMqgkBESQkrwhW4pDQAQpziUyqCQERJCSvCFbikNABCnOJTKoJAREkJK8IVuKQ0AEKc4lMqgkBESQkrwhW4pDQAQpziUyqCQERJCSvCFbikNABCnOJTKoJAREkJK8IVuKQ6DPBFkQAJvV8I//L0mLwK0ArgBwVdply1qtrwRZN5RHXa4suHtpzeUADvCW1SkdkT4SZF8Ah5UOfA/t2z5VmmtJ2PSNIBsAOKskgKfMltUB8InSG+kbQY6JKRLWG692dyFHAti7O/XpNfeNIFcCWDU9TFqxIQJzAGzVcGwVw/pGkPsALFwF8v008hwAfM3tjfSNIOwhzooqkm4QOB7ATt2obkdr3wiiqvPt3CdNV01SzbCpshzj+kYQYnYHgKflAE86HoMA61Ot1DdM+kgQVni8uG+OquB6VgRwXQV2mkzsI0EIwKLhJH19AOxNJ2kHAYab8MO8txX++0qQ4dtBsVjtkON2ADe1s3Q5q04DQcpBW5ZUh4AIUp3LZHBOBESQnGhLV3UIiCDVuUwG50RABMmJtnRVh4AIUp3LZHBOBESQnGhLV3UIiCDVuUwG50RABMmJtnRVh4AIUp3LZHBOBESQnGhLV3UIiCDVuUwG50RABMmJtnRVh4AIUp3LZHBOBP4PoOuXBRO3Nv4AAAAASUVORK5CYII=" parent="1" vertex="1">
          <mxGeometry x="480" y="195" width="120" height="120" as="geometry" />
        </mxCell>
        <mxCell id="4B--IzYdBBH68_pt8sej-7" value="Deep Learning model.&lt;br style=&quot;font-size: 18px;&quot;&gt;LSTM" style="text;html=1;strokeColor=none;fillColor=none;align=center;verticalAlign=middle;whiteSpace=wrap;rounded=0;fontSize=18;" parent="1" vertex="1">
          <mxGeometry x="440" y="330" width="210" height="110" as="geometry" />
        </mxCell>
        <mxCell id="4B--IzYdBBH68_pt8sej-9" value="" style="shape=image;verticalLabelPosition=bottom;verticalAlign=top;imageAspect=0;aspect=fixed;image=data:image/png,iVBORw0KGgoAAAANSUhEUgAAAMgAAADICAYAAACtWK6eAAAV5klEQVR4Xu2df4wc5XnHv8/M7B02EgSfqkKbpDRUCrZbaCCVWpBa0/r2bBzSJOADfOfbWUOhCmlFWkJF1AQbpKBCaKMUUKGF3TM2lSAECDG+nT1qtxW0VQIUUhuqBkKhBVp65odkm7ubmaeau3N7Pu5uZ95935n33X1Xur/ufZ73fT/PfHZ2fr1DsB9LwBJYkgBZNpaAJbA0ASuI3TosgWUIWEHs5mEJWEHsNmAJiBGwexAxbjaqSwhYQbqk0HaaYgSsIGLcbFSXELCCdEmh7TTFCFhBxLjZqC4hYAXpkkLbaYoRsIKIcbNRXULACtIlhbbTFCNgBRHjZqO6hIAVpEsKbacpRsAKIsbNRnUJAStIlxTaTlOMgBVEjJuN6hICVpAuKbSdphgBK4gYNxvVJQSsIF1SaDtNMQJWEDFuUqM27eZTwqOTfSj1rppJPD15yFvRO7FniN6R2pFNlpmAFSQzsvQBG2pHT4/c0hqKeC05zqkccx8Iyd8qgPqYuc8BVjHgLJaVgDgGDhHRBMATYBwCY4IcmuA4fotdOuBG0wfHqiteTT8q2zILAStIFlpLtD1OBKI1MXgtgdYAOFFC+jQpDjP4oAM6wMwHrThpkKVrYwVJx+m4VhfdzSuneqMLmHEhCJsB/JRAmjxC3gbjISI80TPp7nv8ajqSR6ed1IcVJEM1B0b5Ao6jYRAu0liKpWaUyPI4Oe6uRoX2ZZh2Vze1gqQof/99k8PkuEMANqRobkKTMY6j3c1tvbtMGGyRY7SCLEO/XI+uAnAVwOcWWSR1fdMzAO4JfPcedX2YndkKskj9Ol+MhZO2oiylsRVkHpn1tel1RHQjAevM/t4TGz0D+5l5x3i1tF8sQ+dFWUHmalquTW8H0Y2dV2KBGTHvCKql7QKRHRfS9YKsr039KpFzS7fuNZbaomf3JvEN49Wef+y4rT7DhLpakIFauIUJdwL4SAZm3dT0XWJc06h6D3TTpOfPtWsFKdemfg/kfLvIwjNjkAgPFjmGVH1z/PtBtefPU7XtsEZdKYguxxuB71F/LdxshiTdeVzSdYL016NrCHyHDl90iSDJOKwkOlRj8TF0lSADtalrmZw/06UcxwQxShKi7UHF3aELQ9Xj6BpByvXojwG+WTXQLPnnC2KUJF10GrgrBBnYGW7hGLuzbLx5tF0oiGGSlINqqZkHpyL76HhByjU+ExQlhfxokaAX63sxQUySJIqjtU9u6z2oG1eZ4+l4QQbq4WMMfFYmNFm5lhLEFEkI9BxCZ33jSjoki4lueTpaEF1O5y5V9OUEMUUSAA8HvneJbhu2rPF0rCD9dT6fEP0tAFcWLNl5WgliiiTMcbVZ7anL5qNDvo4VZGA0HGPGgA6QRfcgx+L0v07CB1zPO2/vML2vM2+RsXWkIOV6dB3At4kAyTMmzR7EFEmI6OZGxf16nvzy6KvjBOmv8S8Tzfy0OikPgO30kUUQ7X9uEY66cM/fW6Hn2mGiW2zHCVIeDe8E44u6gV5sPFkFMUCSu4KKd40J7NOOsaMEWb9zcrUTu88COCEtgCLbiQiiuSQfxE50zvhI74tFcpXZd0cJUh6NbgXzV2QCUplLVBCtJSG6Lai416vklmfujhFk/eiRjzvck+w9+vIE2E5f7QiisSQTMU2dM15Z+Vo7bHSJ7RhBdL8oKOsYZGEeLU8Bd9DNjJ0jSD16HuCzdPnmSTOOdvcg+p4CphcC3z07DQPd23SEIOVR/gw4elx32AvHJ0sQLX9ukXtRUKHvm1aThePtCEH66+F9BFRNK4ZMQXSThIFa0/e2mVaTjhNk4H4+jcPoRRBONq0YsgXRShLGe+S5qxtb6U3T6jJ/vMbvQXR6xjzrhqBCEJ0kYdCXmr6bLKtk7Md4Qcqj4aNg/LaJFVAliDaSEB4LKt7nTKzNsTEbLchvjb7f5/LKV0y470rVad7lNj4NTgG/H9GRTzxZOWnCVEmMFmSgHl7MwHdMha9yD6LLKWACLmn43sOm1shwQaI7GGzszXF5CFL0zy0C3dnw3S9ZQQogMFCPDjA4eVmmkZ8sgiQ/l5pV7yHRiRb1c4tABxu+u1Z03EXHGbsHSVZld8j5h6IBttN/JkHq4T4w7jJRkpjjXzN1lXhjBdFtlUQRUbIKkryiIVnw2jRJiOMvN6o93xJhVHSMuYLUwwcYuDwHgAxACScRQZL5miYJAX/d8L0tOdRKehdKCi99lIskLNfDlwF8QnFfUyAMETDIPPM+dKkfUUEMlOSVwPfOkAovp2RGCrKxzmdEiH6smNFhIgw1Kt5jST8Do+GDsiVpRxDTJHHh/sJen5IvNaM+RgrSPxoOE+N+ZaQZ77GLLc0R74n5fciWpF1BTJKECVubFc+497IbKUi5Ft4JUrMwAwP/Q8xbllqYWaYkMgQxRhLGXUHVvAUdzBSkPv0DgD6tYA/yJjt8eXOklCwbtORHliSyBDFDEv5h4Jd+RUHNlKY0VJDwAwC9csnQaw7Fl41VSqmurciQRKYgBkgyGfieEavNzN+ujBNkw70ffDJ2vZfkyoFXAHcw8OmZLHnblUS2ILpL4kThmWNXnPCvWRgX3dY4Qcqj4SVgCN9y8WHg9FLsOYPjw/QjkWK0I4kKQbSWhLA5qHhG3VxqnCADtembmOhrIhvz4jF0wPWcwb3DJPwiGFFJVAmiqyTEfHOjWjJq/V7jBCnXw0cASH4IpxhJVAoiQxJR8Zf58no08L3Py/tyU5/JREEUXUHPXxJlghBCBgabFS/5MhH6KJAjGYdxV9SNEmRdjU/ooeioUMVTBeUriRJBGJNMGGz63vdSTXmRRorkmOlpit0V+6uUnIU04mOUIOt38monjoSPFdJVJD9JFAhyeO5GxuPuAEg379lWKuVI8seOu2Z8hIxZ3NooQfpr4YVE2JOl4GJt85FEsiDvxTFfOr6t1BCbs3o55o6LNjWrx9/CIzrePOLMEqQeXUPgO/IAA6iXRJogjEPk8KWNSmlclI3qPcexcZm2FJBhgkx/k0B/KLoRZI9TK4kkQf6biC9rVEr7ss8vn59V88fF4Nubfuk60bHmHWeWILXwYSJ8IV9I6iSRIMgbAF8e+KW/E2WS157j//YgjO82q97FouPNO84sQerTzxLoU3lDUvVzqz1B6DVGvKXpl54S5ZG3HDPHIODnmn7pHNEx5x1nmCDhOwR8JG9Is/3J35O0IchPYo63tLMQQhFyzAqCd5u+d0oxNczeqzGCbH6Qe947Ek1mn6LMCLmSiAlC/+ZwNDRW7fmB6MyKkuPYeE9e6fY+NEhTouPPM84YQTbt5lOmp6NDecJZvC95kmQXhE6l2BlqbKPkVXNCn6LlSAZdKrmr9gzRO0ITyDnIGEE27uKPRmH0es58luhOjiSNijeYdj799XCf47rXNrbS82ljFrbTQY5kTK7nfmzvMP2H6DzyjDNGkA338yfjKJL9HEgbrNuXJEvn5Z38i8EI/UuWmPltdZEjGZPjumeObSUjngsxRpByfepcwPmh6AaiJi5fSUTnoJMcs3OIPx34PZkeThOde7txBgky/esALfuseLswxOL1lkQ/ORLK/BvtXLsRq5NYlDmCjIYbwRC+CU8MT9ooPSXRU46ZdSovDCre3rR0i2xnkiCSH7WVjV0vSbSVI8Fu0KO3xgjSX5vyiZya7M1abj49JNFajpm1heNqs9pTl8teTTZzBMn1Tt52YBcrie5yzByBGPRyT5MEuZ7Af9LOpptfbDGSmCDHnCB/1PTdW/Orh3hPxggyUI92MNigFTHylcQUOWYPQeimhu/eKL7Z5hdpjiC16duZ6A/yQyOjp3wkMUmOGUGY/7RRLeX4XI94LY0RpFwL/wKEq8WnWlSkWklMk2OmCoy7g6r3u0VVJEu/5ghSD5PXHQxnmZw+bdVIYqQcs0XZFfjeVn3qs/RITBLkuwCMWnTseOxyJTFYjgTLI4Hv5fxkqJiO5ghSmw5A1C82TV2i5EhiuBzJhZBmUC2VdanKcuOwguRaJSvI7DGIFUT6Zleuh/Yn1jyqhu9F7E8s2YaU7UH6h5AaLIk9SJcuiD3NuyhSIyWxp3ll6wEM2AuFS0I1TRJ7oVC+H7C3miwP1SRJ7K0mCgTpr0f2ZsUWXE2RhEH2ZkXZjvTb291TITVBEnu7e6pSZmtkH5hKz0t3SewDU+lrmbql/Lfbpu46ZUM5FwFTdtaymdaS2EduW9Yvc4OyXbQhMzNtJbGLNmSuZcuAct0u+9MS0iIN9JTELvsjUstlY+zCceJI9ZPELhwnXs0lIrt96dH1tclfGq/2/kgUrE6S2KVHRau4TJxdvDrcB3a/3KzSP4vi1UUSu3i1aAWXibOvPwj3EfNpHPNw84oe4TWKdZDEvv5AgSD2BTrhPgLWgejHiKLhYFvPP4liLloS+wId0cq1iOuv21ewzSF6FTEPBdtKT4uiLkoS+wo20YqliOu3L/Fc9/+Y6HXieKhRLf19CnSLNilCEvsST9FqpYjrt6+BnifIDLA3Y+Yt49XS/hT4tJCE7WugRUvVOq6/Pv1NAuW44Fj7t48s9y2d/R2FWChIAu1tBl/e9EtPtia4eIs89yQMvr3pl64THWveccYs2pCAyfeOXrVyJPORJEiS6tCcJIHoBpSXJCbdyZuwNEuQWnghEfaIbgTp49TLIVmQJN37IFzWzotp8pCEGZuaVU/TFyF9eAsxSpD1O3m1E0cH02/oIi3zkUOBIEnKw3OSfF9k5kmMaklix10zPkIvio4v7zijBFlX4xN6KDqqDlJ+cigSJEk7SYRLGxXvMVFOKiWZYnfF/ip9IDq2vOOMEiSBU66HrwD4efmg8pVDoSDJD+cwjnHpeNVL1hIT+iiS5CeB731CaEAFBZkoyPcAXCSXV/5yKBVkDg4zBptV7yFRVgokeTzwvc+KjqeIOAMFib4B8A3yYBUjh2pB2pWjvxZuJsKD8jgnmeiWwHe/Kjen2mzGCTKwM9zCMXbLw8IvxRwPit5K3s63rMTTvMfh0FMOgBwMNUa8B+TVTn0m4wTZMMpnxRw9LxnNyxTHg41tPc9myduOHKr2ILrKkczXIffssQq9kIVx0W2NE2T7dnaePj2KFIB7DY47GIxQqrtk25VDhSA6y5HM97xXXXf7dooV1E5ZSuMESUgM1KMDDF4jnwq9QRxf1uoGQBlyyBZEdzkIdLDhu2vl10xtRiMFKdfDUQAjatDQ24x4yXubZMkhUxDd5Zir087A9ypqaqYuq6mCXAHgr9RhwbvEfHmjWhqb34dMOWQJYogcyXSvDHzvXoU1U5LaSEGSBQwcclUf7B1mYEvT95LrLkpuwWj3LJZBciDm6CzRM4VKtvyUSY0UJJlbuR6+BeCnU85TtNkUYgyRi0FmbBZNslRcO4KYJAeA/wp871TZ/PLIZ7Ig3wFwcQ6QWNVdz6KCGCZHUqKHA9+7JIdaSe/CYEGiGwD+hnQiOSYUEcRAOZLvl68GvntLjmildWWsIP316TKBGtJIFJAoqyBg3NXOvVVqbh9pDY7BA02/JPwwV+se1LUwVpBz7+ZSX2/0MoCPqcOjNnMmQWrhZhPlAPD6xKR7xjNX07RammqyGyvIzJmlelhjwFeDRn3WLIK0M5qi9hzJmAmoN3yv2s74i4w1WpByPRwCsKtIgO30nYcgRcoxx2Y48D2JN5e2Qzx7rNGCXFjjU0Oa+Zm1MvvUi49QLYgGchzx2D3jiSolp+SN/BgtSEK8XA8VPECVTy1VCqKBHAlE4x6QWlh54wXJdykgueKoEkQTOWDaEj+LVdd4QQbu59M4jF4E4WS5m6/6bCoE0UUOMN4jz13d2EpvqieprgfjBUnQ9NfD+wgw7kyJbEG0kQMAA7Wm721Tt+nmk7kjBCmP8mfA0eP5IJPXi0xBdJJjhhC5FwUVEl6fSx7l9jJ1hCCzB+vJY7h8Vns48o2WJYh2coBeCHz37HxpqumtcwSpTW8H0Y1qMKnJKkMQ/eRIfl/xjqBa2q6GWr5ZO0aQ9aNHPu7wzKILffkiFO+tXUG0lAOYiGnqnPHKytfEyegT2TGCzPzMGo1uBfNX9MG7/EjaEURTOQCi24KKe70pNWg1zo4SZP3OydVO7CZ7kRNaTVyH/4sKoq0cwAexE50zPtJrzOLUrbaDjhJkdi8S3gnGF1tNXIf/iwiisRzJnYl3BRXvGh3YyhpDxwmycZQ/FSF6CowVsiCpypNVEM3lOOrCPX9vhZ5TxauIvB0nSAJxYDS6iZm/VgTQLH1mEURrOZLLHkQ3Nyru17PM34S2HSnIxl18UhSGTwOk9UJlaQXRXQ6AD7ied97eYXrfhI0+yxg7UpAEQH9tyidyallg5N02jSD6y5Fc9oirzWpPPW9+efTXsYLMHLDXw+QFMp/PA6RIH60EMUEOAI8EvvcFkfmbENPRgvzmKP+sG0dPEeHndCzGcoKYIAcz/j1y3PP/pkL/qSNfGWPqaEESQOtr0+scon0yYMnOsZQgJsiRsIiZLxivlvbL5qJTvo4XZOZ4ZDS8khh/qRP4ZCyLCWKKHEz4nWbFU7k+shbl6gpBZo5HNLyZcaEgpsjRSTcjtrKwawTRUZL5glg5Wm2qxfy/qwTRTZJjglg5itn40/TadYLoJEkiiJUjzWZaXJuuFCTBPVCb3sBEe4tDn1xgw6D8Vy3LnxExb1z4MiH5veiZsWsFmTm7VZ8+n+A8CPDP6FmeokdFbzDiwaZfeqrokRTVf1cLMrMnuXfq7Nh1vkXAuqKKoGO/DOx3ovjaxhU9sl+5reN0lxxT1wtyjIyOp4EL25I66JnydhlaQeYRTK66E9GN3bo3SfYazLyj06+OZ5HGCrIIrXI9ugrAVQCfmwWmuW3pGQD3BL57j7lzUDNyK8gyXDtfFCtGK62sIK0IJWe77pscJsdN3kWyIUVzE5qMcRztbm7rNfbdKnlBtoJkID0wyhdwHA2D8DkAqzKE6tD0EBiPkuPualT0vLtZB0gLx2AFEahKeSefSHG0iYFNmP3TdbG6CQB7CNjDjrsnGKHDAtPt6hAriITyb6gdPT1yS2so4rVEtCYGryXQGgAnSkifJsVhBh90QAeY+SC7dMCNpg+OVVe8mibYtlmagBVE4dZxnDiOcyrH3AdC8rcKoD5m7nOAVQw4iw2DgDgGDhHRBMATYCQ/kybIoQmO47esCAqLN5faCqKeccseNu3mU8Kjk30o9c4e10xPHvJW9E7sGaJ3WgbbBkoJWEGU4rXJTSdgBTG9gnb8SglYQZTitclNJ2AFMb2CdvxKCVhBlOK1yU0nYAUxvYJ2/EoJWEGU4rXJTSdgBTG9gnb8SglYQZTitclNJ2AFMb2CdvxKCVhBlOK1yU0nYAUxvYJ2/EoJWEGU4rXJTSdgBTG9gnb8SglYQZTitclNJ2AFMb2CdvxKCVhBlOK1yU0nYAUxvYJ2/EoJWEGU4rXJTSdgBTG9gnb8SglYQZTitclNJ/C/lpF6X6nXW5wAAAAASUVORK5CYII=" parent="1" vertex="1">
          <mxGeometry x="797.5" y="60" width="120" height="120" as="geometry" />
        </mxCell>
        <mxCell id="4B--IzYdBBH68_pt8sej-10" value="Predict bluetooth distance to judge close-connect" style="text;html=1;strokeColor=none;fillColor=none;align=center;verticalAlign=middle;whiteSpace=wrap;rounded=0;fontSize=20;" parent="1" vertex="1">
          <mxGeometry x="760" y="200" width="195" height="80" as="geometry" />
        </mxCell>
        <mxCell id="4B--IzYdBBH68_pt8sej-11" value="" style="shape=image;verticalLabelPosition=bottom;verticalAlign=top;imageAspect=0;aspect=fixed;image=data:image/png,iVBORw0KGgoAAAANSUhEUgAAAOAAAADICAYAAADx0u26AAAa7klEQVR4Xu2dC9StVVWGXwdiQ5HkJl5SJCUtkYuS4AUjvEOBkgoogqApeCwC0dQQRMSMFAwUhBQMLUUoTVRUNDEjFVFIQIIgzcqgNEEBM0xtPMe1D/vf59/fN9ftu+w95xhn4PBfa6653vW9e93mmvMu6l+Ok/RsSZtKulTSGkk39W+WW+AI1EfgLvWbmNvCZpJOlXTATInPS3p8j3Z5045AZwj0RcCdA/l2WaWnt0nauDMEvCFHoEcE+iDg8ySdLuleDf3uw64eh8GbXlYEuv7Qj5X0egPYXdtlMMmLOALlEejqQ98kLDkPNHahK7uM5ngxR6AOAl186L8q6W2SHhPRhS7sijDHizoCdRCo/aHvL+n9CabXtivBJK/iCJRHoOaHfoyk4xNNrmlXoklezREoj0CND53TTe73Dsowt4ZdGeZ4VUegDgKlP/SdJJ0raZtMc0vblWmOV3cE6iBQ8kPfL5CvhKUl7Sphj+twBKogUOpDP1rSCQUtLGVXQZNclSNQHoHcDx2Xsb+QtFdh03LtKmyOq3ME6iCQ86E/UtLFLS5lqVbn2JXaptdzBDpHIPVD31fSBypam2pXRZNctSNQHoGUD/2PJb2yvCkrNKbYVdkkV+8IlEcg5kO/p6RPRbqUpVocY1dqG17PEegdAeuHvqOkKzq0dvcO26rd1Jcl8cbRxRFYDwELAQ+RdLZjl4XAlyRdLulDki7K0uSVFwqBNgJCPAjoUg6BMyUdVk6daxozAvMIeA9JXy3gUjZmbGra/m1JW9ZswHWPA4HVCMi7vS+Mw/xRW3m+JK5zXJYYgVkCcr3ANYNLNwj8jqTTumnKWxkiAtMEvKCCS9kQ+zw0m+4v6cahGeX2dIPAhIC3VHIp66YX424FP9qPjrsLbn0qAhDQZ75U9MrUI0oc0cFdlhABCHizJKKWufSDwEck7d1P095q3whAQDxc8HRx6QeBP5V0aD9Ne6t9IwABWf68rm9Dlrh9yAcJXZYQgckhjLub9Tf4xE39Sn/Ne8t9IjB9DUEgpev7NGYJ28Yv9GlL2G/vckBgNU8YvGBiolg7mOkI7CDpyvTqXnPsCMzzBe3i0e3Yscu1371gchFcgPpNryF+UxJH5C7lESCQ1fPLq3WNY0Og7TnSAyVd5V4yxYaVPTYX7xDQxRFQGwEnEHXtLfPZBRqb6yTdIOlfJH1G0ncXqG/elUwErASkmS5fSsTYlQmBV3cE+kMg9kN/kqRPd2BurF0dmORNOALlEUj50B8USJibgKWpNyl2lUfHNToClRHI+dBrxovJsasyZK7eESiHQO6HTnChd5QzZ52mXLsqmOQqHYHyCJT40J8cAvaWtK6EXSXtcV2OQBUESn3oW4dc8KVc2ErZVQU0V+oIlEKg9Id+sqQjCxhX2q4CJrkKR6A8AjU+9DUFIn3VsKs8eq7REchEoNaH/lRJ52W4sNWyKxMur+4IlEWg5of+YEmnSvqNBJNr2pVgjldxBOog0MWH/lZJR0Sa34VdkSZ5cUegPAJdfegvk/T2CPO7sivCJC/qCJRHoMsPndALkNDiwtalXeVRbdbI0nyrqSLflPSNro3w9oaBQNcf+kPCvnDPlu53bVft0eBx829JesKcHyCeKn1e0t96hLTaQzEs/X196KdIOrwBir7sKj06EO8lkTk3iJBGmEIPVVh6NAaor88P/XfDbDgLyz8bl6kDhHOdSRtI+hNJxH1JFSdiKnIjqtcnAYFpj0DC6X3hayT90YgwnDX14ZI+KOlhhfrwZkm/X0iXqxkYAn0TEDg2C0TcSNLXO3rwW2sYakUZP0PSS2sZ7Xr7Q2AIBOyv92Vb5oDlc2VVrtD255IOrKjfVfeAgBOwHOjsXbliqCk4Nby8ZgOuu1sEnIBl8MbljkOlLgTXvgu7aMjbqI+AEzAfY2KnXiPpnvmqTBpIHfDrku4wlfZCg0bACZg/PL8XrhxiNLFc5bXI/SQ9QBJRBWLkDZKOjangZYeJgBMwf1zwXvk1o5rbQnxVTjWnJeX0dLfKhz7GLnmxHAScgDnoSfeVdKNRBbPewZIumVN+i3AFQ8Yki3xKEu8uXUaMgBMwb/CIgcOezCK7S7KE3L9J0n0sCiW9ShKZrFxGioATMG/g9g/BqNq0kJCFZaZFdpR0haWgpFslsRS1ljeq9WJdIeAEzEPaundjprw0oikeMHPnZxHc3p5lKbigZUjx/ShJj5C0bfjvxpJunvpHmj1wIknOoMQJmDccVgKm4IxXDd41FsFNbfZgx1KvjzIbBj9ZXA//O2SLSskYtXfIsficiE58PBDxXRF1qhZN+TCqGjQy5TUJ+HRJfDAW+Q9JvyLp+5bCPZR5XHgPSXIfZilIOCsXhVPdyyTxv+cJhOPq5/EZ/eDHjcfh52foKFLVCZgHo5WAXNb/e0JTMfF0zgmnrAnNVKvyQkkHSHpiZAvkUaQ/75mpB/m4Py0lH5L0233mbHQC5g0l1wrvNqjYN/HX9t5hVvhlQxsU4dU9H1XfwuzEEyqWiTnCCuAVwdOoNPkmdv1reI2DN1Pn4gTMg5xln2XgcpyoeQExOxPMs/rasBTN61Ve7RMLv1/k4OQPCs98q/WQZbL1SikPoanaTsB8KAmoRG6MJuF1O6d1qUJO+ecZK7O3yXUMx9ZdJW0y0+ZHJX25wY4zQwgOo6mDK8b+1PKDWsxwJ2A+lOxVDjKoOTQjzguv7Dk42NzQDkW2l3SVsSzF0Ltf2KtBvCZHgH8L2bA42v/rqTas++EIszovyj6d6H2dkdAJmD/Gz5j5EOdpZFBZ5nwvsUneAZ5krMtJ4s6GstxPQjz+4RgeK3j2vCn063WxlQdavlMXPydgma/g6nC83qYtxiNmNV0czz+lrZHwdwg77zKfp1McHj3bqGvZirGEjwkknYyPEzAZuhUVj5d0jEEVrmPMghA2RXgHeHFERS67fzBTnudP7OWsTt8RzfVelFCOhO5gmUys1cdKYpZ/kfEHctIB6nOSy3+rihOwDLwx/ptnhw8itWWWfK82Vv6YJGKTToSL8E8b69Ys9iNJfyfpi2G/yfK3LVhzkz04InDlwWHXavLzIZRHzDK5xGFWK4ZOwFaIzAU+HHHvxcdm9XKZNQA/Rw5kIL1F+DA5MDlEEuTvU66TRFDmv5T07RlDuFNlj0uUvFixLu1fGfl6hOde7AmriROwHLQxy8PcjX7MpfTtkl4s6X3lupqkCZJAPpykm4QZmpk6RqxPvdC5T/AHtejPHafWNpyArRBFFWDZQiYoi+RcS6Afh2L2NmMQbOVHwCrvkHSYtbCk2O845sqE8Tw9wpaoorGGRylfwsIknyHJypaGvrMc45CgbUaYp4oQiCxFf8HQVp9F2J+l2Pj34cDKYjshQdhTxgiHWaxa2oTDHA5k6EdxcQIWh3TtAQkHJRY5wXh6Ok/XGkmnWRpKKPNnkvDAwRtm07A34wGyde85aZL9Z4pPKO1AKku0uaMl/WFkH2O2DOT5ODJSv6m4E9AEU3QhTuN4JNomXBEwC17ZVrDh7xdEZl9qagp7iHGKSxm//LPCqw6IGfO6wXpAsppd1hPfT0ri+VasxCxFISwBuIqKE7AonOuU8QSH+yiL5D4j2iUsRe9maayhDGEtONwheFST0A6nmHsZ20Ov5cdoNXXbRfw4ESDrP402TYrx2oQtgyVp7OyVTmRTqxd3AhaBcVUl+EnipmYRPmYux1OF+y1rzJnV2ojdpxHHNOZ4HgKmxq2xOqLjj/veBABjlvEcJBV9Te8ETBgxYxUOBqxLFh6gxh69T5vBC3MOZPD6SJGUHwBc2bi7s0jOMpRQ/JYfp7e1JH1tshP8ucpok38Kr0Rm7zDb6s39uxMwGTpTRT4Ka5JOfok5fk8VSMR+MFZYtrF8i5VHS/qSsRJh9PlBiglMNa36bwz7ThwbUr1p8BbisMgihIEkHGQRcQIWgXGuEp71fNUY5/P6cOz+nQyTYu4hJ81wAJTqFxqzzMZT6JmJfWN5yV65Sc6V9NxE/VSzPiv7aZgF2TtmixMwG8JWBfxaWjP+curH6+9UuX9YinIfaZWcx8LMgiyz725sjMt1TlhThIfAOzVUzFnmopYfIV7EW/rCDw8eNdniBMyG0KSA93mWF/E/DLNg6oEFxhAI6SyTVXcWuoek/4msMynOHRz3mRYh/gqntkT/jhUeGbOaWE2+FuKBxuqcLU8/6I9F2P+2zcqtepyArRAVKUA4CU7zLFIiE+4HJBEIyiq5iV4se7SJLa+JWBHM2o+HEW5h04GIUy/6V8MGR3CWlg8zAAfp8ZBJfWC9tgknoAHpQkWIVmbdA3F9kXKgMjGV5RSnojzDschRkk62FJxTBmcCSGhZvvGK3nLi2GQO3jm/JOmbkv4rw+7VquKjaw1y/EZJr81p3wmYg15c3UdKutxYhX2VxU+xSV3M3hO/VKJw5xyv46plIXEJAhphTC7GHaclZyOnu8yCTYGqGo1wAiaPUVLFmFTWJcIiWB2O6cxbQu7CpI6FSgTNbQsVjysbbxOHLFxn4PliEfpMTJ0kcQImwZZc6a4hzIHl3u3r4UAm1r1q2rhYj5XcveBDw1KUsBfz5PkR++FkoAtU5PGy9YeCPf77U9p0Aqagllcn5lV2iUtfZjb2eBa5UBKeJznS9Fi4kzAPOcZP1SXbEtcSltcYyVc5TsBCoxWpBg8S7tDahNgpBHFK3mMELxfa4yWDRUpkWoKEzB57TDWYc/ppsbtGGe4WjzUqTnpg7QQ0olu4mNW/kWZZ2lijYs8zM+aNIpG+OZD5VuE+j1HdvcK1BIGR2yRpFnQCtsFa7+9/FZKpWFrITbrCdQTOAOzRLMJhESnAXH6WPemdRiCiZ0EnoBHZCsW2CvdYFtWXRCTrnKcPQvGy2yoEAB5CCEOrvTXLfSKErG9rI3oWdAK2QVr370QJO9zYBARiZkoVniyxF7SGlCjpYZJq81DqxbyWiJoFnYD9DzGPYS15GfD64EAmJzjQC0JICWuvSb9GyjOXn3kmWaIARM2CTsD+Py1eWRNS3SIlLsvZz7CvsUhMvE2LvjGXqTILOgGH8UnwUNWSzegnYRZMfdg66e0/SrJk3XUCrvw+is+CTsBhEJBQEtbsrFmuT6G7ODITXqFJopZSw4CxuhXFZ0EnYPUxMzdApLHpZzZNFbnopnyOtOWKSHavyjFqBHWLzoJOwOGMOKnEbjOaw2zJgUyuzHMb4yUFbnAu6yMQMwse2Bae0gk4rE8sJrxgUwLOmF6R356nT5M89zwcJj6Ny3wErLMgD6OJJj5XnIDD+8zIU27JpUA5ZsHqSSSHB1HvFllnQVY0vK6fe3XkBOx9LNczALcz3NQsQgpqZkKX7hGwzoKNF/NOwO4HztIicUkI82ARXmQXCZFnaczLrEPAGucHos6NkO4EHOYXZbkmmFjOaWjbK/Rh9nLcVuHgTiiPtsfV3N3iBL9qzg0n4HA/AuJnvsRoHht9Nvwu3SJg9So6ImQHXs86J2C3AxbbGlGYLYKTNUtWfm1dukOApSVBetuEVyW8LnECtiE1sL+TV4L8EhYh1AW+oi7dIbBBWIZaIpETWPiqWdN8BuxusFJbIlHmgwyVbwyzIK8mXLpDgDeWlsfLq4bkcAJ2N1CpLRGpjFiaFvGX7BaUypaxRp4j5/2uPgOWBb8rbTyO5fLXIqQBI7e6S3cIkLOCJWabkBdjRUo3nwHbIOv275uGZeTmkrYI/8iHwL+9jaYQAp/LfJfuECBEvSWr1XpRDZyA3Q1SU0tEVsZxNzcm56QNctS/bxhdWworOIG2OEPgZ0tg4nXiBOzv+yDwK4knuUSfOEKXsoY4oviJElfUpRsEbpDUdhrKG8wVmZecgN0MzmwrbNwJQ/GLFZsnFuiJFfW76pUIWN9zQsB1j6GdgN1/RixB3ttBs+SUYBYkx4RLfQSOkXS8oZkViT2dgAbEChZ5T9jrFVTZqOo0SVzmu9RHgIhplpyOJBh92cQcJ2D9gZm0EHOVUNIqHtuSb9ClLgL3MabeZn++Li+IE7DuoEy086tH0pM+pPE5TB8GLXCb10gilmqbbDwJP+IEbIMq/++xIeHzW1xfA8fkX6yh2HWuQIBEOo0hKELpp0oiC6/niK/8ARF7kxicfQtpto7r24glaJ/oBCcZ+knsn7UHNj4DGtDKKBKTp326Ga4oiMvJcfXXJP1YEo90dwgBfNnw4x1jFSegFam8ckQnIJFOm5DsZW3uRCdgG1R5f79S0nYRKjglxaEa8jUJ94csbS1e+OjZx/huLcJUL7oKAiTAucOAzPclkXvQCWgAK7UITtExp49cF3BtECNPlHRCS/wYZlC88G+JUexlkxHgx/NRhtr4/d7iM6ABqcQi+P1ZM9vuK+n8xHbuLgln4CNXqX9F8D3kdM6lGwSsiVfZUtzgBKw3KFdL2tagPmXmW00tIQ94MbFNuI/iYS7RrX9gsMGLlEPAeuWEl9IXnIDlgJ/V9D1JRM5qklvDvZHnY683Dl1rPlYSh15tQjyZC5yAbTCl/R3iQcA2OVfSc9sK+d9HhQCR7Iho1ybkaDzLCdgGU9rfHx6uD9pq4xPIksVlcRCwRkpbGyPGCVhn4Ak9YPE84eU6L9hdFgcB69ifLOkoJ2CdgSfnuyWX+xk9+ojW6blrJYIdkezahDvfFzgB22BK/zuXrTjdNgnhyjm1dFkcBH5O0g8N3fm4pD2dgAakEotYI2URrm6NJLxmXBYDgZslbdLSlbXPkpyA9QY8JrfDdyS9QtI59cxxzR0igAM+jvhNwj3t1k7AeqOykyR+5WLk7PBqwZNuxqA2vLIXh6zDTZbhILGRE7Du4MXMghNL2BfyXAVXNpdxInDh5LVDi/kbOgHrDnDKLDixiCdJEPGmuia69goIWP1BN3YCVkB/RiV7uzcnNnNtIOF5ifW9Wj8IWB3xt3QCdjNAudHQ8JZhNuSwxmX4CLxL0osMZm7lBDSgVKgISRqflKGL1xWQ8IMZOrxqNwiQ09ESDvKhTsBuBmTSyuHzUhVHmHGKpKMl3R5Rx4t2iwDPwEiY2ibbOwHbICr/96eHsPQPzFDN5f1Rki7N0OFV6yHAcySeJbXJzk7ANojq/J04MUTFemaGep47QcKzMnR41ToIkJfjTQbVuzkBDShVLHJE2Ne1uS01mUCKZIj4k4p2uuo4BKyxYJ/mBIwDtkbpHQMJc2ZDDnggofuT1hiheJ3WR7nPcALGg1urRu5syIU9JPTEnLVGyK6XZKtcPbXJfk7ANoi6/XuJ2ZC9hyVdcrc9W67WniWJfIFtcrATsA2ifv6eOxuSiYnZ8Pp+zF/6VveU9DEDCoc5AQ0o9VQkdzb8RiChh7zofgB3l/QZQ7NHOAENKPVcJMeXFNNJymIJk9dzNxeq+ccQ89PQo1c7AQ0oDaAI6axw6N4+0Ra88yGyJVZJYhNebQoBxomICG3yeidgG0TD+TsZWCEhJ2wpQqYl3KMsaZRT9HudOxEg7Dx4t8mJTsA2iIb399wl6WtDLonh9WxxLHqAJEtUg1OcgOMc9NwlKe8LIbLlIxknQv1avbnx6diZTsB+Byqn9dwlKYGDICHhE1zKIkDGKktSnHOcgGWB70Nb7pJ0bYj0Pgxf8DZ/aujfeU5AA0ojKJK7JMV9DSLfOIK+Dt3EQySdKOneBkM9O5IBpLEUYUnKQ9CDEg2+KpySfjKx/rJX4+4P4pEZ2SoX+QxohWo85V4eiLhBoslcVbwlse4yViPXO8Q7NKHzlzkBE1AbQRVizzAbWnKVr9Yd7grfkBBYeATQFDWRd3/8WN01UevtTsBE5EZQjaNwLu7Zk6QIMWd4tQ+RXVYiwJ4bXHbIBOYjTsBMBEdQnV9pPpa7JdrKnpDZkDg0yy7E8QHL/QsBsZcTsBCSA1ezW5gNH51o5/+F2RAiLqtYc79b8LlF0qsIzuUEtMC1GGWIO8OSlNzkqfLZQESSjyyLPEfSSZJyothNY8WVD+PwD/yfTsBl+Yzu7Cd56fkA8NZIlTcGIt6RqmAE9R4Rlpt7FLKVEJIc2Kx4Ke8ELITuyNTsGj6ux2bYzXs3Dmk+kaFjiFW5vuFagYgCJYR0AhCPfz+eVegELAHxOHWQPpsDhcMyzefDgoi3ZuoZQnXyORB5fKNCxrwzEG/u0yQnYCGkR6zm4BAWceuMPlweSPjhDB19Vn2cpLdK2rmQEYSj4IeJPPCN4gRsQ2g5/g75SPwCGXOEDL/MqtflKOmw7qaBKC8s1CZppyHe2636nIBWpJajXInZkD0PhzxDv8DHZY/TzVJChHLI960YhU7AGLSWo2yp2ZCLe0g4tBAYnGqeKmmbQsNJCEiI97kUfU7AFNSWo06J2RCkhrIs5YeFfV5OCoDpkb8mEO/dOZ+DEzAHvcWvW2o27HtZekLIqVhixP536loBj5YscQJmwbc0lUvNhl0vS/HZPE3SZoVG6txAvq8U0ueeMKWAXAI9pWbDLpalxOXkJPIJhcblskA8glkVFZ8Bi8K5FMpKzYY1lqUbhov0lxYaie9OLTd/VEjnCjVOwBqoLr5OZsNjJJW4Pyu1LF0Tlpul0CfzMKeb15ZSuJoeJ2BNdBdf9z7hWc0uBbrK1QDhMGIdvHlqxT5v2wI2oIIXHxDPkt0ou0knYDaES6+AZR9v28iLnutDeXVIJkMuizbZIuzz9msraPw7QYohHj8EnYkTsDOoF74h0qlBxBKvxc+Q1LSPY/mLA3gpgXSQr/NI4U7AUkPoeiYIHBBmQ97T5QgvCDjwmU7zxZKX5eb9chRP1WWZCfFYdvYiTsBeYF/4RgnVN1mW5n5jpNzG2+R0SU8uhBwHKxCPg5ZeJRecXo33xgePAM982BvuNRBLuUqYPI7liqF3cQL2PgRLYcCLAxEf3GNvuUSHfFyqD0acgIMZioU3hH0bs+HhHfcUtzGIhxvZ4MQJOLghWXiDnhL2h0Tvrik4Sk+WmzhQD1KcgIMclqUw6ohAxPtW6C2HNpCPJ0ODFifgoIdn4Y3jUSynpTmxSqdB4lEsxOOR7CjECTiKYVp4I7nfI4zFQxJ7ShgIiEdYiFGJE3BUw7XQxkI+SAgZY4RnR5CPgEijEyfg6IZs4Q0+LkRoa+soIf8gHiEARytOwNEO3UIb3rQkxUUN4hH0dvTiBBz9EC5sB8ixTmIU/m0XDlYukUTwXx7zLoT8P66NxTJL5l0qAAAAAElFTkSuQmCC" parent="1" vertex="1">
          <mxGeometry x="790.3" y="370" width="134.4" height="120" as="geometry" />
        </mxCell>
        <mxCell id="bqttPXVo8gif4pYuu-56-6" style="rounded=0;orthogonalLoop=1;jettySize=auto;html=1;exitX=1;exitY=0.5;exitDx=0;exitDy=0;entryX=0;entryY=0.75;entryDx=0;entryDy=0;fontSize=20;" parent="1" source="4B--IzYdBBH68_pt8sej-12" target="bqttPXVo8gif4pYuu-56-4" edge="1">
          <mxGeometry relative="1" as="geometry" />
        </mxCell>
        <mxCell id="4B--IzYdBBH68_pt8sej-12" value="Predict hand-shake class based on given data" style="text;html=1;strokeColor=none;fillColor=none;align=center;verticalAlign=middle;whiteSpace=wrap;rounded=0;fontSize=20;" parent="1" vertex="1">
          <mxGeometry x="760" y="490" width="210.3" height="110" as="geometry" />
        </mxCell>
        <mxCell id="4B--IzYdBBH68_pt8sej-13" value="" style="endArrow=classic;html=1;fontSize=20;exitX=1;exitY=0.5;exitDx=0;exitDy=0;entryX=0;entryY=0.5;entryDx=0;entryDy=0;" parent="1" source="4B--IzYdBBH68_pt8sej-7" target="4B--IzYdBBH68_pt8sej-10" edge="1">
          <mxGeometry width="50" height="50" relative="1" as="geometry">
            <mxPoint x="640" y="460" as="sourcePoint" />
            <mxPoint x="750" y="280" as="targetPoint" />
          </mxGeometry>
        </mxCell>
        <mxCell id="4B--IzYdBBH68_pt8sej-14" value="" style="endArrow=classic;html=1;fontSize=20;exitX=1;exitY=0.5;exitDx=0;exitDy=0;entryX=0;entryY=0.5;entryDx=0;entryDy=0;" parent="1" source="4B--IzYdBBH68_pt8sej-7" target="4B--IzYdBBH68_pt8sej-12" edge="1">
          <mxGeometry width="50" height="50" relative="1" as="geometry">
            <mxPoint x="620" y="710" as="sourcePoint" />
            <mxPoint x="670" y="660" as="targetPoint" />
          </mxGeometry>
        </mxCell>
        <mxCell id="bqttPXVo8gif4pYuu-56-1" value="" style="edgeStyle=segmentEdgeStyle;endArrow=classic;html=1;fontSize=20;exitX=0.5;exitY=1;exitDx=0;exitDy=0;entryX=0.5;entryY=1;entryDx=0;entryDy=0;" parent="1" source="bqttPXVo8gif4pYuu-56-4" target="4B--IzYdBBH68_pt8sej-2" edge="1">
          <mxGeometry width="50" height="50" relative="1" as="geometry">
            <mxPoint x="1140" y="680" as="sourcePoint" />
            <mxPoint x="120" y="730" as="targetPoint" />
            <Array as="points">
              <mxPoint x="1380" y="790" />
              <mxPoint x="185" y="790" />
            </Array>
          </mxGeometry>
        </mxCell>
        <mxCell id="bqttPXVo8gif4pYuu-56-2" value="" style="shape=image;verticalLabelPosition=bottom;verticalAlign=top;imageAspect=0;aspect=fixed;image=data:image/png,iVBORw0KGgoAAAANSUhEUgAAAMgAAADICAYAAACtWK6eAAAavklEQVR4Xu2df5QcVZXHv7d6AhxkYREWXXdR8OweXZAkXT3JdPUEJIakq4fILyUIESTKBkFBoxjlh78QEEEQwR8ov5QfUYgcWSHp7oASDZnqJNPV4UdY2LPHePC4ruxGFhQkTLrunppM4jCZnq569V511fTrf5Jz+t777v3e95n60VXvEfRHK6AVaKkAaW20AlqB1gpoQPTs0ApMooAGRE8PrYAGRM8BrYCYAvoIIqab9uoSBTQgXdJoXaaYAhoQMd20V5cooAHpkkbrMsUU0ICI6aa9ukQBDUiXNFqXKaaABkRMN+3VJQpoQLqk0VO5zGr18Td4+3lHwPCONJA50MNwg/fObBkwzf+JWrcGJKqC2r+jClQGh84AGVcAOHzPROga28p+NkqCGpAo6mnfjipQddwbGbhg0iSYn7ULuXeKJqoBEVVO+3VUgWrNvY8ZpwZMom5bZm9A29eZaUBEVNM+HVUgJByjuYqdbmlAOtpqPXhYBcTg2DkKgw4vWdnfhBlTAxJGLW3bUQWiwOEnbhAdvyCfXR2mCA1IGLW0bccUiArHyBGEeXmpkLs2TBEakDBqTUHbVRs3vpm8zGHUpMNAOAzgg4hwAIADwDgARB6BtjF722DQNv//YNrG8Lb1GMON4/r6tqmWRQYcO0+xeEnJyv0gTL4akDBqpdx2da22P3nTLDAsylDe/xfA/pHKYmwhol958DZ6zPXjC71PRoo3zlkWHCOAeDS71J/dFCY/DUgYtVJqW641BohxEoNPJuBgxWX8BqC1BmFl2PP98XnJhAPAVnopc1SxOOPlMPVrQMKolSLbVevdtxngJWTQSQBmdCj1Tcy8EmSsDHv3SDIc/uFjsV3oXRFWBw1IWMUSbr9qcOioDBlnA1gC4MBEpEt4GUwrgx5VZMNBwE1Fy7xQRAsNiIhqCfSpbnzyUG4OLwfzeSDKJDDFnSkxbqdpmW8UZ814aqIcpcNBWFnMm4tE9dCAiCqXIL/KYP3jICwH6NAEpdU6FcL/gula8owfFPtnPL/LMGlw+HlpQFIxoyZO8uHa5jlN5i8APD+NZRCw3gPdWrKyP0giHBqQNM6q0ZzLjvspAl0F8N4pLmMkdSKsDPHgYdty/XhRTqvGDqCPIG3lTpbBQ+s2vb2nJ3MVgNOSlVkyspEJhz6CJKOngbMor2/MIvLuBJHw+w2BB0uhoWw4NCApmgSV2ua5YO8XKUo51lRVwKEBibWF4oNVavUlYLpdPMLU9lQFhwYkBfOmvL7+JTLoiylItSMpqoRDA9KRlgYftHNw8KtgPA+iPwDYa3RBhGgPNQYvO7Clajg0IIFbEb9hbHAQbWHmnxpMZYb3vGcMPz+Qz780vuJHNvz7QcM7Xn07Gd7hAPkriBQAzAPwhvjV2XlrWNat3Mny17d5O9HdNmOqh4M2EbCGmX5mF2ZujCJB2dl0LDzjWDLo3QCOjRIrqG9ccOgjSNCOxGinEg4CHoRhfL/YN/MhFSVVnaE+huE/FHiGivgjEzamI8eu/PURRFUnBeKqgkM1GONLrWxoHM9N70IiWiAgQ0uXuOHQRxCZ3YsYSwUcBNRgGFeqOmK0K7nqND7E7F0Eone1sw36PRv80VJf7ntB7aPa6SNIVAUl+KuAA6A7MtOay+b39r4oIUXhEDsfjTFuBWiucJDXOVIjM23aSfN73/WcnHiTR9GAxKHyJGOogIMIFxfz5tUdLu11w1ecxr0AC7+XMa6W62zLvCiO+jQgcajcYgwVcIBpsV3Ihn61NA4Zqk7jUgb7C01H/fwZBg/Yfbl1UQO189eAtFNI0fcq4GDQ3JKVXasoZSlh12x8fJ7XbD4SORjxA3Y+d3LkOG0CaEBUKzxBfBVweJ5XHOjvXdOBckIPWaltXgL2Ij9bRqAPFq3sPaETCOGgAQkhlgzTsuNeRsBXZMTaHcOjhXZ/dpXUmIqDSfojsdG2zD6VqWpAVKo7Lna15n6OGV+VOSQZdHKxL/uAzJhxxao47o+jvvhFTP3FQnZQVc4aEFXK7gFH4yJmDrUubLvUDIMWLejLrmxnl9TvK0NP/z2GX60AmC6eI11lW9lLxf0n99SAqFJ2TNxKrfFJMH9D5lAe+IMDVk7p+bfMfFvFGvkxERxqvdxxsR63LXOmqlw1IKqUHY272nEvMIAbZQ7DoCX+SiAyY3YyVnmwXo3yWIrn8byB/pySty01IApnRtVxz2PgO3KHoKW2lb1FbszORvOf3YLHwg9QMnB9yTI/raIKDYgKVQFUnMa/Avx9meGJcU6xYN4mM2ZSYlUc1z9dFHsKOOJGnZNpoAFRMENk3ecfm5rI3hYKSlMWcvRR+ZroAKp+B9KAiHakhV+ltvlMsHenzLAGGWcuyM+8W2bMJMaqOu5jDPSL5cafta3cNWK+rb00IBIVHd3UXuqdJTZwRqnP/JHENBMbquI0vgbwcrEEaYVtZReL+WpAZOu2R7yKU18E0L1yB+LTbCt3n9yYyY1WddwSA6E22RxTzdO2ZR4puzp9BJGoaFIXYJZYovJQFcf1d4DaV2SgV14ePviU4+TumagBEenEJD4akmiCVhzXP4KUBKPMty0z+pPCYwbXgAh2YjI3DYm4qBWnfglAV4pEIKblxUJW6uM8GhCRTgTw0ZAEEGkCk/Kg+xEi3CrizcCPS5Z5uohvKx8NiEw1x8XSkIQXN+Kv6mtty5T07vvO3DUg4XsYykNDEkourNng9noeQu1lPmYEDUg4uZNhrSEJ3ofqxo2HcrNHdMUSDUhwqZNlqSEJ1o/7tmzZa/+Xtm8PZr2HlQZEULhEuGlI2rfhoXXrDuzpecMf21tOaKEBERQuMW4akslbUX5s0zsok3lGsGEaEEHhEuWmIWndjsqG+tHw6FeCDdOACAqXODcNycQtqdTc94HxE8GGaUAEhUukm4Zkz7ZEfAvzW7ZlXiCz2fp3EJlqCsTSkLxetCjrZRkGf3SB5JXfNSACk1q2i4bkr4pWnUaNwUKLwRmgOQus7HqZ/dGAyFQzQiwNCVAZ3PJG0PZtojJmpnl/K3u7Bw2IaDcU+HU7JFWnsZjBYq8WE35r5823ym6LBkS2ohHjdTMk1Zp7MzPOFZGQgHLRMgdEfCfz0YDIVlRCvG6FpOLUnwTEtmsjomuL+azg++ytm6YBkTChVYToNkgedjaf0oR3v6iWjObckjVL+t4oGhDRjsTg102QVJ3GWgb7e62H/jDwu5Jl/mNoxwAOGpAAInXSpBsgqdY2L2X2hHeuZfB3SlbuYyr6pAFRoarkmFMZkke3bNlv+59eq4FZeMkeVadXfhs1IJIns6pwUxWSyobGJfBYaJGGEa2Jttj5rLR92Mf3TwOiakYriDvVIBl9ctffQEdoHaydfODqYt68WIHcO/lTFVjHVaPAVIHk0aGhg7cPGz4cuShK6S3YIqhXHmycWip0Zouycq0+nZgKDD6KQEcAqBPh6aZnNAYKMxsRysJUgKTqNO5i8Aej6ADgftsy3x8xxqTuU/YI4sNBxPcRYWUxby5SKeL42FWnfhpA1zPwlgnGfYU9vrbUn/tSlJzSDEnk645dwhl8jN2XWxdFx3a+UxKQXXDsKj5OSAI/rk2o2nnTbtegyb5PIyTjexOh/u/alnl+BP9ArlMOkFYNiAOSsuN+hYDLAinvGzFfYBdy3wpsP4FhmiCRBwe9wM0dVmnOrGejaBfEd0oB0q4BKiGp1tyrmBH6bgoRTi/mTX+/cOFPGiBp15swxbPHX456ihp0vCkDSNAGqIAk0sYvhLvsvHlW0Ia1sksyJEF7E0gDomd3DP/ZWnj00S8Eso9oNCUACdsAmZBUau7XwYiyw+oTtmXOiNjHEfckQhK2N+10IOD8omV+t52drO9TD4hoA2RAUhms3wCiT0Rthm2Z0vqQJEhEe9NST6Ib7Hx2WVS9w/hLa0yYQWXZRm1AFEgqjnsTgI9LqEXaEWRXLkmAJGpvJtB1hW2Z0vcgbNe/1AIiqwEikFQc9zsAzmsnbqDvJV2DjB+rk5DI6s3umoi2vOT9ZdaiQuEvgTSVaJRKQGQ3IAwk5cHG94h4qbQeGPiQ3WdK3Ta6k0cS2b3xa8ns8N42/+he0RXfI7UqdYCoaICvYBBIqo57KwMfiaT4651vti1TzpGoRVJxHklU9IaIe4v5XF2i5qFCpQoQFQ0Yq9ZkkFScxh0Anx1K3cmNH+8xhucd1yd3V9aJhowDEhW9IcY5xYJ5m0TNQ4dKDSAqGjCRWhNBUqm5d4JxZmh1WzkQbekBLzoubz4tLWabQCohUdGbOH8MnEy6VACiogGTijLmAceK07gH4DOkTeQOwKHymsTzaKX/UKg0ffwncGL8pbxd3okHJG44dgnmH0nA8Bg4rZ2Igb/vIByqIAlce0DDJMExcm0aMO+OmFUGG2eA+J6ODC570ATAkXRIkgZHogEpO42zCXyH7HnakXgJgiOpkCQRjsQCUh6sLyUi4WVgOgJBgi7Ig9Yv+8I96Ljj7ZIKRyIBWVNrfMxjjvSOhGijpPsl8MgxvsZOQ5JkOBIHSNWpL2PQ9dInaicCpgCOTp9uJR2ORAFScdzPArha5lxm8JeIjFOjLEomlI8COB4cGtq3Zzsth4HpBJoO0CEA+78wP0WGUS32zXxIKNdRp7iPJGmAIzGAVAbdz4NweZQGj/cl8GVFK3flIzX3iB2g+2KDRAEc1Zr7AWZeDlC25aUO8GDRMk+IomFckKQFjkQAUqk1PgHmG6I0do+LPsbFpYK5+2gUGyQK4KgMul8A4cuB9JGwyqBqSNIER8cBqaxvnAiDHwjU/IBGRPSZYj779fHmyiFRAMdqp36pAboiYOk7zdhbbBd6V4TyGWesCpK0wdFRQEYXVns8SiP38CVaZuezLY9GyiBRAEeEa7Ktf3mVzJPnZv8virayIWHg8yXLDAd7lAIk+Xbkl/TVtdr+xHs9TcA/SKrDfyTgwqJl+m/5TfpRAQmBvly0spEWghubdLXWuIiZr21XS6vvPfZOHij0Rj4yy4KECBcX83895RWtqxN+HQGk4riPAjhWVsFhX+RXAQlAV9pWNviaWC2KLzv1ZRT1VrfEd7ejQtLqlFdW71XHiR2QiuPeAuAcWYURGecW8zO/HzaeGkjwNdsyPxc2l132Zce9kIBvivrv9iN6wM5nT44cZzSAMCRtTnll5acyTqyAVB33PAb897nlfIg+buez3xYNpgiS62zLvChsTtVa43xmFq5l7Hge87KBQk7qncGwkHjAhQMBTnnD6hS3fWyAPLRu3YE90/ZzwPwOKUVK+uukBBLmb9qF3CeD1lkerJ9LRDcHtW9n1/Qoe3x/dnM7u7DfB4Uk7Clv2DzitI8NkMCLOgeongxaXuzLCl/Ejh9CESTftgu5tssCVZzGOQD7p51SPgz8uGSZp0sJNkGQ9pDQUtvKSqtHVR1B48YCSPmxTe+gTI8D8IFBE2tpZ9Cldl/2qshxxgVQAQkzvlcqmB9tlWulVl8Cptsl1vKKx8acqPuPtMunJSRkfNjOz5waryiMihALILLWkVL9Q5MSSIDbSpa5x02JyqB7Fgg/bDcZw3yvWp+xuewBCRln2fmZd4XJNw22ygEZ3YfuVxLEWGtb5lwJcSYNoQISAn5YtMzdK6KsduqLDdDdMmuJE45dee+GRMKv9zK1kBlLPSCO+xMA74uWND9lW7mjosUI7q0CEjBW2AVzcdXZfBrDi7TdwfhKOgHHrhwqTn2RbeWkLtoQvFPqLZUCssoZ6svAqEUqg/B7ZiqUrOxvIsUJ6awEEvirf5DU7eA6CUdISVNprhSQqtP4ov9ORgRlhrnZPKk0Z9bqCDGEXdVAIpzOHo4aDnlatoqkFJCK4/ov9JiiZSRhAiQVkiRoI9rXNPkpAyTq6RUB/8XT9um1e4/4facFTRokGo74ZoQyQCpO4wqALxUtJWmTICmQJE0X0f6mxU8hIO5WAIeJCJGko8fY/DsNiYZDZDZF81ECyBqn0e+BHxNNLckToVOQJFkT0T6nwU8JINVa4xpm/oywAMz/bBdy/ynsr9gxbkg0HIobOkl4NYA47moGSoJlVWzLFPUVHDK8W1yQaDjC90amhxJAKjX3OTAOFUk06KuzIrFl+6iGRMMhu2Ph40kH5OGhoQOaw4b4ggEJP70aL7EqSDQc4SezCg/pgES8QHdty8ypKFRlTCWQEC638+YXVeatY7dXQD4gG+rnep7Y23Fp/qupBBLwlbaVi7wQRPtpoC1aKSAdkIrj+kvvtH2TbqKE0v6qpgpIiOirxXz2Ej2FO6OACkDEl/QhvN/Om/d3Rgo5o6qABKBrbCvrL+6tPzErkCxADD7G7suti1kD6cOpgQRCq6VIL67LAiYKEG4231maM+vZqdADJZAw32AXcsumgj5pqSFRgOzY8fIbFx599AtpEa9dniogYeCmkmVe2G5s/b0cBRIFyEv77733oiOPfE1OacmIogISEH3bzmeFboQkQ5X0ZJEoQCiz463F2bN/mx75gmWqBBLgZtsyzwuWgbYSVSBRgBgGZi3oM4dEi0mynxpI+Bbbyi1Nct1pzy1RgMCghXZfdlXaRW2VvxJIGLfbBfMjU1WzTtelApB7AJwhUhgzzikVzNtEfNPiowISBn5YGrPuVlq0SEOe8gEZbHwSxN8QK54vta2c9GVFxXJR56UCEhDusvPmWeqy7s7I0gGprnePYQO/FJTzZ7Zlnijomyo3JZAAK2zLXJwqIRKerHRAHlr3xIE9PTv+KFj3y7Zl7ifomzo3RZDca1vmB1InRkITlg6IX2fFcf3NOaeL1Mxozi1Zs9aK+KbRRwUkzN6iUqF3ZRr1SFrOigBp3AHw7sWawxSd5kfew9Tp26qAA1Pggc+wOqq0VwLIGsf9lAdcJ5h4LKu4C+YmzU0FHMx8SqmQ+6m0JHUgf/dk+Z9qrTGfmdeIRiZ4+aLVu0HUP+l+PhxN0EPMfLi0XIlOsvPZf5MWTwcaUUAJICPXIYP1Z0Akuh/hlL0bMwIH0y8Y/CZZc5DAJxSt3IOy4uk4f1VAGSBlx72OgE8Jiz0Ff1UfOa1iqgH8N8K6jHecgjpJ00ZCIGWArF5ff49h0M9Fc/RP0UqFXFHUP2l+O+HAEwAysnIjYKBomWVZ8XScPRVQBsjIaZbj+lsRzxAVnkBnF62s1H38RHOJ4jcKx5YoMfbwZS7ZhVxFakwdbA8FFAPSuBLgCAsO8FM9PdNOPG7W9F+ntXcq4PA8rzjQ3yt8EyStWnYib6WAVAcbBSZeH7Gw1N72VQEHgPm2ZT4SUVPtHlABpYCMnmb5t2tnB8ynldn9tmW+P2KMWN1VwEEGzyv25X4RayFdPphyQGTt6kqEq4t58+I09GvNBrfX87BJZq4Mmluysl3zCI5M7aLEUg6In1zZadxN4OhPmabgwrS60T2Gm8JPM0/YS8rg3cXZpoy95qPMla70jQWQ0b+o/i3f/aOqzMRnlvK5u6PGUeFfHnQ/R4SvSo3d5GPsOelfK0yqJjEGiwUQv56q417GwFdk1MYePl/qN6+QEUtWjLLj/ogAqY+Ze2jOGbBmRb3JIavErowTGyBrHnPfwhncz0BejtK0Yu/MXp+eO/vI/5YTTyzKqo0b35xpTrsT4PliESb2Yg+FUr/pyIypY4VXIDZARo4iNffDzJD5zvkTBLq+Uz8mVjdsXshe83KAsuGlb+0x1R/WlKmV6lixAjIKyX3MOFVmYf5jKZQxboxrRRQfDHjeUgbeK7MOPxZ7NLvUn5V6B0x2jt0UL1ZAqjVXOhzjmrWC4N2o6lF5lWD4dRBxbzGfq3fTBEx6rbEBEgMcu7UmYD2D1hN4bdSH+cq1+nRiYyGIF4JhqWpoT4ZmHzdbHzlU6SsaNxZA4oRjAiFeAUZ+l/glwFvZM7ZO69nn18f1/cu28bara7X9DW/aIQTjEAbPY+KTSfL1xUSNyhBb8/O5mmgTtZ86BZQD0mE4JlPuJQBbAbwG5jeBcAhA+6iTeuLIBmjOAiurb+XGLXzA8ZQCkmA4Asqj1ow8vLvYr38hV6tytOjKANFwTN6YblveKNo07Zy3EkA0HJM29BVG8/huWvurc9M7+sjSAdFwTNqU/2A0z9VwRJ+4cUWQCoiGY9K23btjR/OShUfPSu3bkXFNyiSNIw0Q2XAQYaXsX9w7IzxtZ/AlJcu8vjPj61GjKCAFEBVwFPPmomqtcT4D54P5yChFds6XHs4QXT4/P/OxzuWgR46iQGRAVMGxq6jKYP2fmLCMQOdHKTReX/4tGNfYhdy34h1XjyZbgUiAqIZjbLGVwboNoosAzJMtgrx4tB3gWygz7Zri7KOm3Gak8nRKTyRhQKqOeyMDF8gq1b/m8E+r2sUrO0MfIhinADihnW1839NWBt+DnszdpVkzno1vXD2SagWEAKkMDp0BMvy9CKV8gsIxdrCHB584agcPvw8GTiHQUVISCR/k5x5w/3Bz37tPnPPOP4V31x5JVyA0IA8ODe07bdh4CoCUlclF4BgvatlxTzBApwA8l4G3qhWdnyGin7LXfMAuzNqodiwdvdMKhAZk9eDmrEGeKyNxGXCMz6PiDJlEmTx7nIdBs8EsusL8rtAvEOERBv0S3o5NGgoZnU9PjNCAlDe4p5OHFVFLVAHHRDmtdt2/y7zWnAlkDmKPD2bGwWTQQQwcTKCDwN5rIHoRwIvMeJEM+kOG6Tk2vOd4n8xzxRkzno9aq/ZPrwKhAak6m5cxvEg/esUFR3rbojNPigKhASk7m44lZB4VLUDDIaqc9uuEAqEB8U9ZjO0QOu3QcHSixXrMKAqEBsQfrOI0vgbw8jADazjCqKVtk6KAECAjkITYg1DDkZR26zzCKiAMyM4jietfixw72aAE3FS0zAvDJqbttQJJUCASIH4BVce9gIEbJyhmK9i7zC70Rr4lnAShdA7dqUBkQHzZHqk9+abXmttnZCgz3cvw77hpPNPca8ez7+3t9Zfc0R+tQGoVkAJIaqvXiWsF2iigAdFTRCswiQIaED09tAIaED0HtAJiCugjiJhu2qtLFNCAdEmjdZliCmhAxHTTXl2igAakSxqtyxRTQAMippv26hIFNCBd0mhdppgCGhAx3bRXlyigAemSRusyxRT4fwOQwm5Jblh/AAAAAElFTkSuQmCC" parent="1" vertex="1">
          <mxGeometry x="1335" y="200" width="90" height="90" as="geometry" />
        </mxCell>
        <mxCell id="bqttPXVo8gif4pYuu-56-3" value="" style="endArrow=classic;html=1;fontSize=20;exitX=1;exitY=0.5;exitDx=0;exitDy=0;entryX=0;entryY=0.25;entryDx=0;entryDy=0;" parent="1" source="4B--IzYdBBH68_pt8sej-10" target="bqttPXVo8gif4pYuu-56-4" edge="1">
          <mxGeometry width="50" height="50" relative="1" as="geometry">
            <mxPoint x="1020" y="290" as="sourcePoint" />
            <mxPoint x="1200" y="360" as="targetPoint" />
          </mxGeometry>
        </mxCell>
        <mxCell id="bqttPXVo8gif4pYuu-56-4" value="Combine into API for Anti-Covid-19 APP" style="text;html=1;strokeColor=none;fillColor=none;align=center;verticalAlign=middle;whiteSpace=wrap;rounded=0;fontSize=20;" parent="1" vertex="1">
          <mxGeometry x="1280" y="300" width="200" height="110" as="geometry" />
        </mxCell>
        <mxCell id="bqttPXVo8gif4pYuu-56-8" value="Feedback from APP" style="text;html=1;strokeColor=none;fillColor=none;align=center;verticalAlign=middle;whiteSpace=wrap;rounded=0;fontSize=20;" parent="1" vertex="1">
          <mxGeometry x="610.3" y="720" width="229.7" height="80" as="geometry" />
        </mxCell>
        <mxCell id="bqttPXVo8gif4pYuu-56-9" value="Innovation Ideas:&lt;br&gt;1.Collect more actual,more kind of data from users&lt;br&gt;2.Receive feedback from APP which can be used for adjusting deep learning model." style="rounded=1;whiteSpace=wrap;html=1;fontSize=20;" parent="1" vertex="1">
          <mxGeometry x="10" y="40" width="590" height="110" as="geometry" />
        </mxCell>
        <mxCell id="bqttPXVo8gif4pYuu-56-10" value="" style="shape=image;verticalLabelPosition=bottom;verticalAlign=top;imageAspect=0;aspect=fixed;image=data:image/png,iVBORw0KGgoAAAANSUhEUgAAAMgAAADICAYAAACtWK6eAAAK0ElEQVR4Xu2d7ctv2RjHvydJCk1C0yROEhqJkCahc5IkDWMkJel4mpAmyVOS4yQJadIkJA1J8jCGISQxL3jhT6CRF16JP0JL+8495/49rGv91t7ru9b67Dqvzr72Wuv7WZ/7+j3vS+IgARLYm8AlsiEBEtifAIKwO0jgQAIIwvYgAQRhD5BAWQJ0kLLcqJokAQSZBDTLLEsAQcpyo2qSBBBkEtArLvNzkp4t6RmS/irpYUmPrDjeppdGkE3jHm6wP0q6smNVNyQlcbo/EKR7hM0WsE+OswkNIQmCNNtfXQ98TI5hJEGQrvdpk8nnyjGEJAjSZI91O2hUju4lQZBu9+rmEy+Vo2tJcgW5JuluSXdujqXPAYd4gnou+lPl6FaSHEFul/RnSbf0uVebzfrdkr7bbPR6A9eSo0tJcgRJr2dfr5f3NFdKb5Zd7Xy1teXoThIEWW8H9y7IWnJ0JQmCIMiuBNaWoxtJEARBbk5gKzm6kARBEOR8AlvLYS8JgiDIWQKt5LCWBEEQJCXQWg5bSRAEQVzksJSkpiDpZc30DvLoR/r+Q877Qj28zOsmh50ktQXp/Y2xHLlz3zh1F8RVDitJECRHiceeM4Ig7nLYSIIg8wnSixwWkiDIXIL0JkdzSRBkDkES5z/s+YGFeAJtKtJD281fBEKQOOzenoM8TtLvO5fjjNLmkiDI2II8XtLvBpGjiSQIMq4gT5D028Hk2FwSBBlTkCdK+vWgcmwqCYKMJ8iTJP1ycDk2kwRBxhLkKZJ+MYkcm0iCIOMIkn5U46HJ5FhdEgQZQ5CnSnpwUjlWlQRB+hfkaZJ+Mrkcq0mCIH0Lku7J8SPkeAzEqm8mIki/gty6yPGa+BKGr6gmCYLE94rDR01uW+R4VXz601RUkQRB4vultSDPXOR4ZXzq01WcLAmCxPdMS0GetchxR3za01acJAmCxPdNK0EuL3K8Ij7l6SuKJUGQ+N5pIchzFjleHp8uFUsCRZIgSHz/bC3Icxc5XhqfKhU3JRC+bwuCxPfQloI8T9KPJb04Pk0q9iQQkgRB4vtoK0FesMjxovgUqTiSQLYkCBLfS1sIku7qlTrHC+PToyIzgSxJECQzzXOnbSFI+lTuXfGpURFM4C2Sfn6oBkGCiUpaW5A3Ld/piM+MimgC6d6bBz+NgCDRSNcX5COS7otPi4qCBP4j6el0kILkDpSs3UE+JOnrdafM1fYk8G9J6RPRew86SHzvrC3IGyX9Kj4tKgoS+JOkVyNIQXINO0gaOv2W1evqTpur7Ugg3Y0g/Qo/HaTi9li7g5xNtdff0a0Y9aqXOipHGp2HWHEGWwmSZoYkcT45FVlyIEhOlBfP2VIQJCljdKgqWw4EKQt/a0GQpIzTrqqQHAhSFnwLQZCkjNX5qrAcCFIWeitBkKSMV6oqkgNBygJvKQiSxJkVy4Eg8bBTRWtBkCSf20lyIEh+0OfPdBAESY6zO1kOBDke8q4zXARBkv38qsiBIP0LgiQXGVaTA0HGEARJ/s/xtcvdfMvI7qjioybxKJ0eYp2f/ewfS0kf7kx38616IEg8TldBZu4kr18+AR2neaQCQeKROgsyoyRvWO7mGyeZUYEgGSHddMr15b2QY5XpewbpCWOLY5aHW+nLZeluvqsdCBKP1r2DnK1odEnu3OKblwgyriAjP9x6s6SH4+jiFQgSz6yXDjJqJzn6W1ZxpPsrECSeZg/PQW5e1SgPt94q6WdxZOUVCBLPrrcOMkoneZukn8ZxnVaBIPH8ehWk5+ckb19+qzhO68QKBIkH2LMgPUryDkk/jGOqU4Eg8Rx7fA7S63OSd0r6QRxRvQoEiWfZewfp5TnJuyR9P46nbgWCxPMcRRDnh1vXJH0vjqZ+RU1B6s+u7yu2/KhJJDm3l4DfI+mByALWPBdB1ku3F0GcOsn7JH1nPSTxKyNIPLPcip4EcZDkHknfzg13q/MQZL2kexOkpSQfkPSt9VCUXxlByrM7VtmjIC0kSTcM+saxMFv9P4Ksl3yvgmwpyYfd76aFIAiyL4G1X926V9L968Vf58oIUifHXVfpuYOcrWctSdKNSr+2XvT1rpwjyJXlRi71Rp3jSl+V9LEBllpbko/2dBffHEES4/QKQ3oZjiMvgb9IuiPv1C7OqiVJ+oOR/nB0c+QKkhZ0i6SXdLOythM9eGPItlMrHv1UST4h6SvFozcqjAjSaIoMa5RAqSSfkvQlo3VkTwVBsqPixCWBqCSflvTFXtNDkF7JtZ13riSfkfSFtlM9bXQEOS2/mauPSfJZSZ/vPSAE6Z1g2/k/JOmuHVO4kfnrk21nnzE6gmSExCkHE0hfIHv+8irno5IelDTMq3gIwu4ngQMJIAjbgwQQhD1AAmUJ0EHKcqNqkgQQZBLQLLMsAQQpy42qSRJAkElAs8yyBBCkLDeqJkkAQSYBzTLLEkCQstyomiQBBJkENMssSwBBynKjapIEEGQS0CyzLIGIIHwnPT/jNT/NellS+sdxOIF/Svr7qSHlCnKfpPdKevKpA05S/7flI+A1l3u7pI9LSvfO4MhLIH1f5e68U3eflSMIv4tVlvAnJX25rHRnVe6NeyoOOcSl0s8vpZ9hKjpyBAFMUbT/+9LQ1bLSnVXHvuJacaihLnXStxsRZL29gCDrZRu5MoJE0trwXATZMOwDQyGIB4cLs0AQDzAI4sEBQUw5IIgpGDqIBxgE8eBABzHlgCCmYOggHmBsBKm9ITzivTiL3PeFaueR+z7ISRvCNfQd89okj5rvg9TeEK6sEMSDDIJ4cLgwCwTxAIMgHhwQxJQDgpiCoYN4gEEQDw50EFMOCGIKhg7iAQZBPDjQQUw5IIgpGDqIBxgE8eBABzHlgCCmYOggHmAQxIMDHcSUA4KYgqGDeIBBEA8OdBBTDghiCoYO4gEGQTw40EFMOSCIKRg6iAcYBPHgQAcx5YAgpmDoIB5gEMSDAx3ElAOCmIKhg3iAQRAPDnQQUw4IYgqGDuIBBkE8ONBBTDkgiCkYOogHGATx4EAHMeWAIKZg6CAeYBDEgwMdxJQDgpiCoYN4gEEQDw50EFMOCGIKhg7iAQZBPDjQQUw5IIgpGDqIBxgE8eBABzHlgCCmYOggHmAQxIMDHcSUA4KYgqGDeIBBEA8OdBBTDghiCoYO4gEGQTw40EFMOSCIKRg6iAcYBPHgQAcx5YAgpmDoIB5gEMSDAx3ElAOCmIKhg3iAQRAPDnQQUw4IYgqGDuIBBkE8ONBBTDkgiCkYOogHGATx4EAHMeWAIKZg6CAeYBDEgwMdxJQDgpiCoYN4gEEQDw50EFMOCGIKhg7iAQZBPDjQQUw5IIgpGDqIB5guBbnhkd2qs7gi6XrGCI9IuppxXu4pkQ2Rxh79SAwSi2NH2pPpj1rRcSmjKvcvZsalpjqllSBThZyxWATJCKnFKQjSIvWLYyKIB4cLs0AQDzAI4sEBQUw5IIgpGDqIBxgE8eBABzHlgCCmYOggHmAQxIMDHcSUw+qCXJb0D9PFO0/rg5K+WXGC1yQ9UPF6s1zqVkn/Kl1szhuF6dr3LP9eVjrQZHX3Srp/hTWnN23fL+m2Fa492iUflZQ4/OaUheUKcsoY1JJAtwkgSLfomPgWCSDIFikzRrcJIEi36Jj4FgkgyBYpM0a3CSBIt+iY+BYJIMgWKTNGtwkgSLfomPgWCfwXKBfv9jSBkTAAAAAASUVORK5CYII=" parent="1" vertex="1">
          <mxGeometry x="690.15" y="670" width="70" height="70" as="geometry" />
        </mxCell>
      </root>
    </mxGraphModel>
  </diagram>
</mxfile>
